<svg width="18" height="19" viewBox="0 0 18 19" fill="none" xmlns="http://www.w3.org/2000/svg"><path d="M17.596 15.016l-2.78-2.935c-.553-.582-1.47-.564-2.043.04l-1.4 1.479a43.15 43.15 0 0 1-.277-.163c-.884-.517-2.095-1.226-3.368-2.571-1.278-1.349-1.95-2.628-2.442-3.563-.052-.098-.101-.194-.15-.284l.94-.991.462-.489c.574-.605.59-1.573.037-2.157L3.795.447c-.552-.583-1.47-.565-2.043.04l-.784.833.022.022a4.858 4.858 0 0 0-.646 1.202 5.25 5.25 0 0 0-.287 1.22C-.31 6.974 1.08 9.91 4.854 13.893c5.217 5.506 9.42 5.09 9.602 5.07a4.5 4.5 0 0 0 2.293-.986l.017.016.793-.82c.573-.606.59-1.574.037-2.158z" fill="#898889"/></svg>