<svg xmlns="http://www.w3.org/2000/svg" xmlns:xlink="http://www.w3.org/1999/xlink" width="1920" height="820" viewBox="0 0 1920 820"><defs><path id="ficja" d="M0 1600V780h1920v820z"/><path id="ficjc" d="M89.1 868.83a14.76 14.76 0 1 0 14.75 14.75v-29.5c0 8.14-6.6 14.75-14.76 14.75"/><path id="ficjd" d="M56.41 962.42l6.29-4.94-29.66-37.67-6.29 4.94z"/><path id="ficje" d="M226.95 836.25c7.5 0 13.58 6.08 13.58 13.57v18.39h-8v-18.4a5.58 5.58 0 0 0-11.16 0v18.4h-8v-18.4c0-3.07-2.5-5.57-5.58-5.57h-5.58v23.97h-8v-31.96h13.58c3.74 0 7.13 1.51 9.58 3.95a13.54 13.54 0 0 1 9.58-3.95"/><path id="ficjf" d="M137.52 836.63l14.55 6.62 3.31-7.27a7.99 7.99 0 0 1-3.96-10.58 7.99 7.99 0 1 0-10.59 3.96l14.55 6.62 3.32-7.27a16 16 0 0 0-29.1-13.24 15.97 15.97 0 0 0 7.92 21.16"/><path id="ficjg" d="M166.63 908v-15.97h-8V924a15.98 15.98 0 1 0 16-15.98zm0 0a8 8 0 0 0 8 8 8 8 0 1 1-8 7.99z"/><path id="ficjh" d="M111.18 967a15.98 15.98 0 1 1-.01-31.97 15.98 15.98 0 0 1 0 31.96m0-7.99a7.99 7.99 0 1 0 .01-15.98 7.99 7.99 0 0 0 0 15.98"/><path id="ficji" d="M23.65 820.1a8 8 0 0 1 3.4-9.12l6.53-4.09a7.99 7.99 0 0 0 .43 11.27l10.75 10.02-15.62 9.77zm9.94-13.2l-4.25-6.78-6.53 4.1a15.98 15.98 0 0 0-6.8 18.22L27 858.16l7.01-4.4-2.43-7.9 19.24-12.05 6.06 5.64 7.01-4.4z"/><path id="ficjj" d="M80.5 1158.8a14.76 14.76 0 1 0 14.77-14.75H65.74c8.16 0 14.77 6.6 14.77 14.76"/><path id="ficjk" d="M174.16 1191.46l-4.94-6.28-37.7 29.64 4.95 6.28z"/><path id="ficjl" d="M37.37 1007.65c0-7.5 6.08-13.57 13.58-13.57h18.4v7.99h-18.4a5.58 5.58 0 1 0 0 11.15h18.4v8h-18.4a5.58 5.58 0 0 0-5.58 5.57v5.58h23.98v7.99H37.37v-13.57c0-3.73 1.52-7.12 3.96-9.57a13.52 13.52 0 0 1-3.96-9.57"/><path id="ficjm" d="M431.13 989.94c0-7.49 6.08-13.56 13.58-13.56h18.4v7.99h-18.4a5.58 5.58 0 1 0 0 11.15h18.4v8h-18.4a5.58 5.58 0 0 0-5.59 5.57v5.58h23.99v7.99h-31.98v-13.57c0-3.73 1.51-7.12 3.96-9.57a13.52 13.52 0 0 1-3.96-9.58"/><path id="ficjn" d="M30.58 1109.7l6.62-14.55-7.28-3.31a8 8 0 0 1-10.59 3.96 8 8 0 1 0 3.97 10.58l6.62-14.54-7.27-3.3a15.97 15.97 0 1 0-13.25 29.08 16 16 0 0 0 21.18-7.93"/><path id="ficjo" d="M119.72 1081.32h-16v7.99h31.99a15.98 15.98 0 1 0-16-15.98zm0 0a8 8 0 0 0 8-7.99 8 8 0 1 1 7.99 7.99z"/><path id="ficjp" d="M95.78 1256.89H79.79v7.99h31.98a15.98 15.98 0 1 0-15.99-15.98zm0 0a8 8 0 0 0 8-8 8 8 0 1 1 7.99 8z"/><path id="ficjq" d="M178.74 1136.74a15.98 15.98 0 1 1-31.96-.01 15.98 15.98 0 0 1 31.96 0m-8 0a7.99 7.99 0 1 0-15.97.01 7.99 7.99 0 0 0 15.98 0"/><path id="ficjr" d="M31.74 1224.2a8 8 0 0 1-9.12-3.4l-4.1-6.53a8 8 0 0 0 11.29-.42l10.02-10.75 9.78 15.61zm-13.21-9.93l-6.78 4.24 4.1 6.53a16 16 0 0 0 18.24 6.8l35.74-10.97-4.4-7.01-7.9 2.42-12.06-19.23 5.64-6.05-4.4-7z"/><path id="ficjs" d="M239.27 1104.6a8 8 0 0 1-9.12-3.4l-4.1-6.53a8 8 0 0 0 11.29-.42l10.01-10.75 9.8 15.61zm-13.21-9.93l-6.78 4.24 4.1 6.53a16 16 0 0 0 18.24 6.8l35.74-10.97-4.4-7.01-7.9 2.43-12.06-19.23 5.64-6.05-4.4-7.01z"/><path id="ficjt" d="M266.94 1018.8a14.76 14.76 0 1 0 14.76 14.76v-29.5c0 8.14-6.6 14.74-14.76 14.74"/><path id="ficju" d="M174.42 1047.57l6.28-4.94-29.66-37.67-6.28 4.94z"/><path id="ficjv" d="M289.9 1232.84c7.5 0 13.58 6.07 13.58 13.57v18.38h-8v-18.38a5.58 5.58 0 0 0-11.16 0v18.38h-8v-18.38c0-3.08-2.5-5.58-5.57-5.58h-5.59v23.96h-8v-31.95h13.59c3.73 0 7.12 1.51 9.58 3.95a13.54 13.54 0 0 1 9.58-3.95"/><path id="ficjw" d="M326.14 1032.53l14.55 6.62 3.31-7.27a7.99 7.99 0 0 1-3.96-10.58 7.99 7.99 0 1 0-10.59 3.96l14.55 6.62 3.31-7.27a16 16 0 0 0-29.1-13.24 15.97 15.97 0 0 0 7.93 21.16"/><path id="ficjx" d="M381.67 987.56l14.55 6.62 3.32-7.27a7.99 7.99 0 0 1-3.97-10.58 7.99 7.99 0 1 0-10.59 3.96l14.56 6.62 3.3-7.27a16 16 0 0 0-29.1-13.24 15.97 15.97 0 0 0 7.93 21.16"/><path id="ficjy" d="M431.13 1083.1v-15.98h-8v31.96a15.98 15.98 0 1 0 16-15.98zm0 0a8 8 0 0 0 8 7.99 8 8 0 1 1-8 7.99z"/><path id="ficjz" d="M316.79 1120.08a15.98 15.98 0 1 1-.01-31.97 15.98 15.98 0 0 1 .01 31.97m0-7.99a8 8 0 1 0 0-15.98 8 8 0 0 0 0 15.98"/><path id="ficjA" d="M382.62 1078.94a15.98 15.98 0 1 1-.02-31.97 15.98 15.98 0 0 1 .02 31.97m0-8a8 8 0 1 0 0-15.97 8 8 0 0 0 0 15.98"/><path id="ficjB" d="M215.39 973.18a8 8 0 0 1 3.4-9.11l6.53-4.1a7.99 7.99 0 0 0 .42 11.28l10.75 10.01-15.62 9.78zm9.93-13.2l-4.25-6.77-6.53 4.09a15.98 15.98 0 0 0-6.8 18.23l10.98 35.71 7.01-4.39-2.43-7.9 19.25-12.05 6.05 5.64 7.01-4.4z"/><path id="ficjC" d="M306.91 871.7a14.76 14.76 0 1 0 14.77 14.75v-29.5c0 8.14-6.61 14.75-14.77 14.75"/><path id="ficjD" d="M278.07 953.09l6.28-4.94-29.66-37.67-6.28 4.94z"/><path id="ficjE" d="M453.4 813.53c7.49 0 13.57 6.07 13.57 13.56v18.4h-8v-18.4a5.58 5.58 0 0 0-11.16 0v18.4h-8v-18.4c0-3.08-2.5-5.57-5.58-5.57h-5.58v23.96h-8v-31.95h13.58c3.74 0 7.13 1.5 9.58 3.95a13.54 13.54 0 0 1 9.58-3.95"/><path id="ficjF" d="M359.89 845.24l14.55 6.62 3.31-7.27A7.99 7.99 0 0 1 373.8 834a7.99 7.99 0 1 0-10.59 3.96l14.55 6.62 3.32-7.27a16 16 0 0 0-29.1-13.24 15.97 15.97 0 0 0 7.92 21.16"/><path id="ficjG" d="M430.17 900.11v-15.97h-8v31.95a15.98 15.98 0 1 0 16-15.98zm0 0a8 8 0 0 0 8 8 8 8 0 1 1-8 7.98z"/><path id="ficjH" d="M332.83 957.66a15.98 15.98 0 1 1-.01-31.96 15.98 15.98 0 0 1 0 31.96m0-7.99a8 8 0 1 0 .01-15.98 8 8 0 0 0 0 15.98"/><path id="ficjI" d="M264.7 824.16a7.99 7.99 0 0 1 3.4-9.11l6.53-4.1a7.98 7.98 0 0 0 .42 11.28l10.75 10.01-15.62 9.78zm9.93-13.2l-4.25-6.77-6.53 4.09a15.98 15.98 0 0 0-6.8 18.23l10.98 35.71 7.01-4.39-2.43-7.9 19.24-12.05 6.06 5.64 7.01-4.4z"/><path id="ficjJ" d="M350.48 1145.34a14.76 14.76 0 1 0 14.76 14.75v-29.5c0 8.15-6.6 14.75-14.76 14.75"/><path id="ficjK" d="M214.15 1254.24l6.29-4.94-29.66-37.67-6.29 4.94z"/><path id="ficjL" d="M440.7 1145.77c7.5 0 13.58 6.08 13.58 13.57v18.39h-8v-18.39a5.58 5.58 0 0 0-11.16 0v18.39h-8v-18.39c0-3.08-2.5-5.58-5.57-5.58h-5.59v23.97h-8v-31.96h13.59c3.73 0 7.12 1.51 9.58 3.96a13.54 13.54 0 0 1 9.58-3.96"/><path id="ficjM" d="M257.68 1204.04l14.55 6.62 3.32-7.28a7.99 7.99 0 0 1-3.97-10.58 7.99 7.99 0 1 0-10.59 3.97l14.56 6.61 3.3-7.27a16 16 0 0 0-29.1-13.24 15.97 15.97 0 0 0 7.93 21.17"/><path id="ficjN" d="M431.13 1224.47v-15.98h-8v31.95a15.98 15.98 0 1 0 16-15.97zm0 0a8 8 0 0 0 8 7.99 8 8 0 1 1-8 7.98z"/><path id="ficjO" d="M356.76 1256.9a15.98 15.98 0 1 1 0-31.96 15.98 15.98 0 0 1 0 31.96m0-7.99a8 8 0 1 0 .01-15.98 8 8 0 0 0 0 15.98"/><path id="ficjP" d="M89.1 1349.83a14.76 14.76 0 1 0 14.75 14.75v-29.5c0 8.14-6.6 14.75-14.76 14.75"/><path id="ficjQ" d="M56.41 1443.42l6.29-4.94-29.66-37.67-6.29 4.94z"/><path id="ficjR" d="M226.95 1317.25c7.5 0 13.58 6.08 13.58 13.57v18.39h-8v-18.4a5.58 5.58 0 0 0-11.16 0v18.4h-8v-18.4c0-3.07-2.5-5.57-5.58-5.57h-5.58v23.97h-8v-31.96h13.58c3.74 0 7.13 1.51 9.58 3.95a13.54 13.54 0 0 1 9.58-3.95"/><path id="ficjS" d="M137.52 1317.63l14.55 6.62 3.31-7.27a7.99 7.99 0 0 1-3.96-10.58 7.99 7.99 0 1 0-10.59 3.96l14.55 6.62 3.32-7.27a16 16 0 0 0-29.1-13.24 15.97 15.97 0 0 0 7.92 21.16"/><path id="ficjT" d="M166.63 1389v-15.97h-8V1405a15.98 15.98 0 1 0 16-15.98zm0 0a8 8 0 0 0 8 8 8 8 0 1 1-8 7.99z"/><path id="ficjU" d="M111.18 1448a15.98 15.98 0 1 1-.01-31.97 15.98 15.98 0 0 1 0 31.96m0-7.99a7.99 7.99 0 1 0 .01-15.98 7.99 7.99 0 0 0 0 15.98"/><path id="ficjV" d="M23.65 1301.1a8 8 0 0 1 3.4-9.12l6.53-4.09a7.99 7.99 0 0 0 .43 11.27l10.75 10.02-15.62 9.77zm9.94-13.2l-4.25-6.78-6.53 4.1a15.98 15.98 0 0 0-6.8 18.22L27 1339.16l7.01-4.4-2.43-7.9 19.24-12.05 6.06 5.64 7.01-4.4z"/><path id="ficjW" d="M80.5 1639.8a14.76 14.76 0 1 0 14.77-14.75H65.74c8.16 0 14.77 6.6 14.77 14.76"/><path id="ficjX" d="M174.16 1672.46l-4.94-6.28-37.7 29.64 4.95 6.28z"/><path id="ficjY" d="M37.37 1488.65c0-7.5 6.08-13.57 13.58-13.57h18.4v7.99h-18.4a5.58 5.58 0 1 0 0 11.15h18.4v8h-18.4a5.58 5.58 0 0 0-5.58 5.57v5.58h23.98v7.99H37.37v-13.57c0-3.73 1.52-7.12 3.96-9.57a13.52 13.52 0 0 1-3.96-9.57"/><path id="ficjZ" d="M431.13 1470.94c0-7.49 6.08-13.56 13.58-13.56h18.4v7.99h-18.4a5.58 5.58 0 1 0 0 11.15h18.4v8h-18.4a5.58 5.58 0 0 0-5.59 5.57v5.58h23.99v7.99h-31.98v-13.57c0-3.73 1.51-7.12 3.96-9.57a13.52 13.52 0 0 1-3.96-9.58"/><path id="ficjaa" d="M30.58 1590.7l6.62-14.55-7.28-3.31a8 8 0 0 1-10.59 3.96 8 8 0 1 0 3.97 10.58l6.62-14.54-7.27-3.3a15.97 15.97 0 1 0-13.25 29.08 16 16 0 0 0 21.18-7.93"/><path id="ficjab" d="M119.72 1562.32h-16v7.99h31.99a15.98 15.98 0 1 0-16-15.98zm0 0a8 8 0 0 0 8-7.99 8 8 0 1 1 7.99 7.99z"/><path id="ficjac" d="M95.78 1737.89H79.79v7.99h31.98a15.98 15.98 0 1 0-15.99-15.98zm0 0a8 8 0 0 0 8-8 8 8 0 1 1 7.99 8z"/><path id="ficjad" d="M178.74 1617.74a15.98 15.98 0 1 1-31.96-.01 15.98 15.98 0 0 1 31.96 0m-8 0a7.99 7.99 0 1 0-15.97.01 7.99 7.99 0 0 0 15.98 0"/><path id="ficjae" d="M31.74 1705.2a8 8 0 0 1-9.12-3.4l-4.1-6.53a8 8 0 0 0 11.29-.42l10.02-10.75 9.78 15.61zm-13.21-9.93l-6.78 4.24 4.1 6.53a16 16 0 0 0 18.24 6.8l35.74-10.97-4.4-7.01-7.9 2.42-12.06-19.23 5.64-6.05-4.4-7z"/><path id="ficjaf" d="M239.27 1585.6a8 8 0 0 1-9.12-3.4l-4.1-6.53a8 8 0 0 0 11.29-.42l10.01-10.75 9.8 15.61zm-13.21-9.93l-6.78 4.24 4.1 6.53a16 16 0 0 0 18.24 6.8l35.74-10.97-4.4-7.01-7.9 2.43-12.06-19.23 5.64-6.05-4.4-7.01z"/><path id="ficjag" d="M266.94 1499.8a14.76 14.76 0 1 0 14.76 14.76v-29.5c0 8.14-6.6 14.74-14.76 14.74"/><path id="ficjah" d="M174.42 1528.57l6.28-4.94-29.66-37.67-6.28 4.94z"/><path id="ficjai" d="M289.9 1713.84c7.5 0 13.58 6.07 13.58 13.57v18.38h-8v-18.38a5.58 5.58 0 0 0-11.16 0v18.38h-8v-18.38c0-3.08-2.5-5.58-5.57-5.58h-5.59v23.96h-8v-31.95h13.59c3.73 0 7.12 1.51 9.58 3.95a13.54 13.54 0 0 1 9.58-3.95"/><path id="ficjaj" d="M326.14 1513.53l14.55 6.62 3.31-7.27a7.99 7.99 0 0 1-3.96-10.58 7.99 7.99 0 1 0-10.59 3.96l14.55 6.62 3.31-7.27a16 16 0 0 0-29.1-13.24 15.97 15.97 0 0 0 7.93 21.16"/><path id="ficjak" d="M381.67 1468.56l14.55 6.62 3.32-7.27a7.99 7.99 0 0 1-3.97-10.58 7.99 7.99 0 1 0-10.59 3.96l14.56 6.62 3.3-7.27a16 16 0 0 0-29.1-13.24 15.97 15.97 0 0 0 7.93 21.16"/><path id="ficjal" d="M431.13 1564.1v-15.98h-8v31.96a15.98 15.98 0 1 0 16-15.98zm0 0a8 8 0 0 0 8 7.99 8 8 0 1 1-8 7.99z"/><path id="ficjam" d="M316.79 1601.08a15.98 15.98 0 1 1-.01-31.97 15.98 15.98 0 0 1 .01 31.97m0-7.99a8 8 0 1 0 0-15.98 8 8 0 0 0 0 15.98"/><path id="ficjan" d="M382.62 1559.94a15.98 15.98 0 1 1-.02-31.97 15.98 15.98 0 0 1 .02 31.97m0-8a8 8 0 1 0 0-15.97 8 8 0 0 0 0 15.98"/><path id="ficjao" d="M215.39 1454.18a8 8 0 0 1 3.4-9.11l6.53-4.1a7.99 7.99 0 0 0 .42 11.28l10.75 10.01-15.62 9.78zm9.93-13.2l-4.25-6.77-6.53 4.09a15.98 15.98 0 0 0-6.8 18.23l10.98 35.71 7.01-4.39-2.43-7.9 19.25-12.05 6.05 5.64 7.01-4.4z"/><path id="ficjap" d="M306.91 1352.7a14.76 14.76 0 1 0 14.77 14.75v-29.5c0 8.14-6.61 14.75-14.77 14.75"/><path id="ficjaq" d="M278.07 1434.09l6.28-4.94-29.66-37.67-6.28 4.94z"/><path id="ficjar" d="M453.4 1294.53c7.49 0 13.57 6.07 13.57 13.56v18.4h-8v-18.4a5.58 5.58 0 0 0-11.16 0v18.4h-8v-18.4c0-3.08-2.5-5.57-5.58-5.57h-5.58v23.96h-8v-31.95h13.58c3.74 0 7.13 1.5 9.58 3.95a13.54 13.54 0 0 1 9.58-3.95"/><path id="ficjas" d="M359.89 1326.24l14.55 6.62 3.31-7.27a7.99 7.99 0 0 1-3.96-10.58 7.99 7.99 0 1 0-10.59 3.96l14.55 6.62 3.32-7.27a16 16 0 0 0-29.1-13.24 15.97 15.97 0 0 0 7.92 21.16"/><path id="ficjat" d="M430.17 1381.11v-15.97h-8v31.95a15.98 15.98 0 1 0 16-15.98zm0 0a8 8 0 0 0 8 8 8 8 0 1 1-8 7.98z"/><path id="ficjau" d="M332.83 1438.66a15.98 15.98 0 1 1-.01-31.96 15.98 15.98 0 0 1 0 31.96m0-7.99a8 8 0 1 0 .01-15.98 8 8 0 0 0 0 15.98"/><path id="ficjav" d="M264.7 1305.16a7.99 7.99 0 0 1 3.4-9.11l6.53-4.1a7.98 7.98 0 0 0 .42 11.28l10.75 10.01-15.62 9.78zm9.93-13.2l-4.25-6.77-6.53 4.09a15.98 15.98 0 0 0-6.8 18.23l10.98 35.71 7.01-4.39-2.43-7.9 19.24-12.05 6.06 5.64 7.01-4.4z"/><path id="ficjaw" d="M350.48 1626.34a14.76 14.76 0 1 0 14.76 14.75v-29.5c0 8.15-6.6 14.75-14.76 14.75"/><path id="ficjax" d="M214.15 1735.24l6.29-4.94-29.66-37.67-6.29 4.94z"/><path id="ficjay" d="M440.7 1626.77c7.5 0 13.58 6.08 13.58 13.57v18.39h-8v-18.39a5.58 5.58 0 0 0-11.16 0v18.39h-8v-18.39c0-3.08-2.5-5.58-5.57-5.58h-5.59v23.97h-8v-31.96h13.59c3.73 0 7.12 1.51 9.58 3.96a13.54 13.54 0 0 1 9.58-3.96"/><path id="ficjaz" d="M257.68 1685.04l14.55 6.62 3.32-7.28a7.99 7.99 0 0 1-3.97-10.58 7.99 7.99 0 1 0-10.59 3.97l14.56 6.61 3.3-7.27a16 16 0 0 0-29.1-13.24 15.97 15.97 0 0 0 7.93 21.17"/><path id="ficjaA" d="M431.13 1705.47v-15.98h-8v31.95a15.98 15.98 0 1 0 16-15.97zm0 0a8 8 0 0 0 8 7.99 8 8 0 1 1-8 7.98z"/><path id="ficjaB" d="M356.76 1737.9a15.98 15.98 0 1 1 0-31.96 15.98 15.98 0 0 1 0 31.96m0-7.99a8 8 0 1 0 .01-15.98 8 8 0 0 0 0 15.98"/><path id="ficjaC" d="M1049.1 868.83a14.76 14.76 0 1 0 14.75 14.75v-29.5c0 8.14-6.6 14.75-14.76 14.75"/><path id="ficjaD" d="M1016.41 962.42l6.29-4.94-29.66-37.67-6.29 4.94z"/><path id="ficjaE" d="M1186.95 836.25c7.5 0 13.58 6.08 13.58 13.57v18.39h-8v-18.4a5.58 5.58 0 0 0-11.16 0v18.4h-8v-18.4c0-3.07-2.5-5.57-5.58-5.57h-5.58v23.97h-8v-31.96h13.58c3.74 0 7.13 1.51 9.58 3.95a13.54 13.54 0 0 1 9.58-3.95"/><path id="ficjaF" d="M1097.52 836.63l14.55 6.62 3.31-7.27a7.99 7.99 0 0 1-3.96-10.58 7.99 7.99 0 1 0-10.59 3.96l14.55 6.62 3.32-7.27a16 16 0 0 0-29.1-13.24 15.97 15.97 0 0 0 7.92 21.16"/><path id="ficjaG" d="M1126.63 908v-15.97h-8V924a15.98 15.98 0 1 0 16-15.98zm0 0a8 8 0 0 0 8 8 8 8 0 1 1-8 7.99z"/><path id="ficjaH" d="M1071.18 967a15.98 15.98 0 1 1-.01-31.97 15.98 15.98 0 0 1 0 31.96m0-7.99a7.99 7.99 0 1 0 .01-15.98 7.99 7.99 0 0 0 0 15.98"/><path id="ficjaI" d="M983.65 820.1a8 8 0 0 1 3.4-9.12l6.53-4.09a7.99 7.99 0 0 0 .43 11.27l10.75 10.02-15.62 9.77zm9.94-13.2l-4.25-6.78-6.53 4.1a15.98 15.98 0 0 0-6.8 18.22L987 858.16l7.01-4.4-2.43-7.9 19.24-12.05 6.06 5.64 7.01-4.4z"/><path id="ficjaJ" d="M1040.5 1158.8a14.76 14.76 0 1 0 14.77-14.75h-29.53c8.16 0 14.77 6.6 14.77 14.76"/><path id="ficjaK" d="M1134.16 1191.46l-4.94-6.28-37.7 29.64 4.95 6.28z"/><path id="ficjaL" d="M997.37 1007.65c0-7.5 6.08-13.57 13.58-13.57h18.4v7.99h-18.4a5.58 5.58 0 1 0 0 11.15h18.4v8h-18.4a5.58 5.58 0 0 0-5.58 5.57v5.58h23.98v7.99h-31.98v-13.57c0-3.73 1.52-7.12 3.96-9.57a13.52 13.52 0 0 1-3.96-9.57"/><path id="ficjaM" d="M1391.13 989.94c0-7.49 6.08-13.56 13.58-13.56h18.4v7.99h-18.4a5.58 5.58 0 1 0 0 11.15h18.4v8h-18.4a5.58 5.58 0 0 0-5.59 5.57v5.58h23.99v7.99h-31.98v-13.57c0-3.73 1.51-7.12 3.96-9.57a13.52 13.52 0 0 1-3.96-9.58"/><path id="ficjaN" d="M990.58 1109.7l6.62-14.55-7.28-3.31a8 8 0 0 1-10.59 3.96 8 8 0 1 0 3.97 10.58l6.62-14.54-7.27-3.3a15.97 15.97 0 1 0-13.25 29.08 16 16 0 0 0 21.18-7.93"/><path id="ficjaO" d="M1079.72 1081.32h-16v7.99h31.99a15.98 15.98 0 1 0-16-15.98zm0 0a8 8 0 0 0 8-7.99 8 8 0 1 1 7.99 7.99z"/><path id="ficjaP" d="M1055.78 1256.89h-15.99v7.99h31.98a15.98 15.98 0 1 0-15.99-15.98zm0 0a8 8 0 0 0 8-8 8 8 0 1 1 7.99 8z"/><path id="ficjaQ" d="M1138.74 1136.74a15.98 15.98 0 1 1-31.96-.01 15.98 15.98 0 0 1 31.96 0m-8 0a7.99 7.99 0 1 0-15.97.01 7.99 7.99 0 0 0 15.98 0"/><path id="ficjaR" d="M991.74 1224.2a8 8 0 0 1-9.12-3.4l-4.1-6.53a8 8 0 0 0 11.29-.42l10.02-10.75 9.78 15.61zm-13.21-9.93l-6.78 4.24 4.1 6.53a16 16 0 0 0 18.24 6.8l35.74-10.97-4.4-7.01-7.9 2.42-12.06-19.23 5.64-6.05-4.4-7z"/><path id="ficjaS" d="M1199.27 1104.6a8 8 0 0 1-9.12-3.4l-4.1-6.53a8 8 0 0 0 11.29-.42l10.01-10.75 9.8 15.61zm-13.21-9.93l-6.78 4.24 4.1 6.53a16 16 0 0 0 18.24 6.8l35.74-10.97-4.4-7.01-7.9 2.43-12.06-19.23 5.64-6.05-4.4-7.01z"/><path id="ficjaT" d="M1226.94 1018.8a14.76 14.76 0 1 0 14.76 14.76v-29.5c0 8.14-6.6 14.74-14.76 14.74"/><path id="ficjaU" d="M1134.42 1047.57l6.28-4.94-29.66-37.67-6.28 4.94z"/><path id="ficjaV" d="M1249.9 1232.84c7.5 0 13.58 6.07 13.58 13.57v18.38h-8v-18.38a5.58 5.58 0 0 0-11.16 0v18.38h-8v-18.38c0-3.08-2.5-5.58-5.57-5.58h-5.59v23.96h-8v-31.95h13.59c3.73 0 7.12 1.51 9.58 3.95a13.54 13.54 0 0 1 9.58-3.95"/><path id="ficjaW" d="M1286.14 1032.53l14.55 6.62 3.31-7.27a7.99 7.99 0 0 1-3.96-10.58 7.99 7.99 0 1 0-10.59 3.96l14.55 6.62 3.32-7.27a16 16 0 0 0-29.1-13.24 15.97 15.97 0 0 0 7.92 21.16"/><path id="ficjaX" d="M1341.67 987.56l14.55 6.62 3.32-7.27a7.99 7.99 0 0 1-3.97-10.58 7.99 7.99 0 1 0-10.59 3.96l14.56 6.62 3.3-7.27a16 16 0 0 0-29.1-13.24 15.97 15.97 0 0 0 7.93 21.16"/><path id="ficjaY" d="M1391.13 1083.1v-15.98h-8v31.96a15.98 15.98 0 1 0 16-15.98zm0 0a8 8 0 0 0 8 7.99 8 8 0 1 1-8 7.99z"/><path id="ficjaZ" d="M1276.79 1120.08a15.98 15.98 0 1 1-.01-31.97 15.98 15.98 0 0 1 .01 31.97m0-7.99a8 8 0 1 0 0-15.98 8 8 0 0 0 0 15.98"/><path id="ficjba" d="M1342.62 1078.94a15.98 15.98 0 1 1-.02-31.97 15.98 15.98 0 0 1 .02 31.97m0-8a8 8 0 1 0 0-15.97 8 8 0 0 0 0 15.98"/><path id="ficjbb" d="M1175.39 973.18a8 8 0 0 1 3.4-9.11l6.53-4.1a7.99 7.99 0 0 0 .42 11.28l10.75 10.01-15.62 9.78zm9.93-13.2l-4.25-6.77-6.53 4.09a15.98 15.98 0 0 0-6.8 18.23l10.98 35.71 7.01-4.39-2.43-7.9 19.25-12.05 6.05 5.64 7.01-4.4z"/><path id="ficjbc" d="M1266.91 871.7a14.76 14.76 0 1 0 14.77 14.75v-29.5c0 8.14-6.61 14.75-14.77 14.75"/><path id="ficjbd" d="M1238.07 953.09l6.28-4.94-29.66-37.67-6.28 4.94z"/><path id="ficjbe" d="M1413.4 813.53c7.49 0 13.57 6.07 13.57 13.56v18.4h-8v-18.4a5.58 5.58 0 0 0-11.16 0v18.4h-8v-18.4c0-3.08-2.5-5.57-5.58-5.57h-5.58v23.96h-8v-31.95h13.58c3.74 0 7.13 1.5 9.58 3.95a13.54 13.54 0 0 1 9.58-3.95"/><path id="ficjbf" d="M1319.89 845.24l14.55 6.62 3.31-7.27a7.99 7.99 0 0 1-3.96-10.58 7.99 7.99 0 1 0-10.59 3.96l14.55 6.62 3.32-7.27a16 16 0 0 0-29.1-13.24 15.97 15.97 0 0 0 7.92 21.16"/><path id="ficjbg" d="M1390.17 900.11v-15.97h-8v31.95a15.98 15.98 0 1 0 16-15.98zm0 0a8 8 0 0 0 8 8 8 8 0 1 1-8 7.98z"/><path id="ficjbh" d="M1292.83 957.66a15.98 15.98 0 1 1-.01-31.96 15.98 15.98 0 0 1 0 31.96m0-7.99a8 8 0 1 0 .01-15.98 8 8 0 0 0 0 15.98"/><path id="ficjbi" d="M1224.7 824.16a7.99 7.99 0 0 1 3.4-9.11l6.53-4.1a7.98 7.98 0 0 0 .42 11.28l10.75 10.01-15.62 9.78zm9.93-13.2l-4.25-6.77-6.53 4.09a15.98 15.98 0 0 0-6.8 18.23l10.98 35.71 7.01-4.39-2.43-7.9 19.24-12.05 6.06 5.64 7.01-4.4z"/><path id="ficjbj" d="M1310.48 1145.34a14.76 14.76 0 1 0 14.76 14.75v-29.5c0 8.15-6.6 14.75-14.76 14.75"/><path id="ficjbk" d="M1174.15 1254.24l6.29-4.94-29.66-37.67-6.29 4.94z"/><path id="ficjbl" d="M1400.7 1145.77c7.5 0 13.58 6.08 13.58 13.57v18.39h-8v-18.39a5.58 5.58 0 0 0-11.16 0v18.39h-8v-18.39c0-3.08-2.5-5.58-5.57-5.58h-5.59v23.97h-8v-31.96h13.59c3.73 0 7.12 1.51 9.58 3.96a13.54 13.54 0 0 1 9.58-3.96"/><path id="ficjbm" d="M1217.68 1204.04l14.55 6.62 3.32-7.28a7.99 7.99 0 0 1-3.97-10.58 7.99 7.99 0 1 0-10.59 3.97l14.56 6.61 3.3-7.27a16 16 0 0 0-29.1-13.24 15.97 15.97 0 0 0 7.93 21.17"/><path id="ficjbn" d="M1391.13 1224.47v-15.98h-8v31.95a15.98 15.98 0 1 0 16-15.97zm0 0a8 8 0 0 0 8 7.99 8 8 0 1 1-8 7.98z"/><path id="ficjbo" d="M1316.76 1256.9a15.98 15.98 0 1 1 0-31.96 15.98 15.98 0 0 1 0 31.96m0-7.99a8 8 0 1 0 .01-15.98 8 8 0 0 0 0 15.98"/><path id="ficjbp" d="M1049.1 1349.83a14.76 14.76 0 1 0 14.75 14.75v-29.5c0 8.14-6.6 14.75-14.76 14.75"/><path id="ficjbq" d="M1016.41 1443.42l6.29-4.94-29.66-37.67-6.29 4.94z"/><path id="ficjbr" d="M1186.95 1317.25c7.5 0 13.58 6.08 13.58 13.57v18.39h-8v-18.4a5.58 5.58 0 0 0-11.16 0v18.4h-8v-18.4c0-3.07-2.5-5.57-5.58-5.57h-5.58v23.97h-8v-31.96h13.58c3.74 0 7.13 1.51 9.58 3.95a13.54 13.54 0 0 1 9.58-3.95"/><path id="ficjbs" d="M1097.52 1317.63l14.55 6.62 3.31-7.27a7.99 7.99 0 0 1-3.96-10.58 7.99 7.99 0 1 0-10.59 3.96l14.55 6.62 3.32-7.27a16 16 0 0 0-29.1-13.24 15.97 15.97 0 0 0 7.92 21.16"/><path id="ficjbt" d="M1126.63 1389v-15.97h-8V1405a15.98 15.98 0 1 0 16-15.98zm0 0a8 8 0 0 0 8 8 8 8 0 1 1-8 7.99z"/><path id="ficjbu" d="M1071.18 1448a15.98 15.98 0 1 1-.01-31.97 15.98 15.98 0 0 1 0 31.96m0-7.99a7.99 7.99 0 1 0 .01-15.98 7.99 7.99 0 0 0 0 15.98"/><path id="ficjbv" d="M983.65 1301.1a8 8 0 0 1 3.4-9.12l6.53-4.09a7.99 7.99 0 0 0 .43 11.27l10.75 10.02-15.62 9.77zm9.94-13.2l-4.25-6.78-6.53 4.1a15.98 15.98 0 0 0-6.8 18.22l10.98 35.72 7.01-4.4-2.43-7.9 19.24-12.05 6.06 5.64 7.01-4.4z"/><path id="ficjbw" d="M1040.5 1639.8a14.76 14.76 0 1 0 14.77-14.75h-29.53c8.16 0 14.77 6.6 14.77 14.76"/><path id="ficjbx" d="M1134.16 1672.46l-4.94-6.28-37.7 29.64 4.95 6.28z"/><path id="ficjby" d="M997.37 1488.65c0-7.5 6.08-13.57 13.58-13.57h18.4v7.99h-18.4a5.58 5.58 0 1 0 0 11.15h18.4v8h-18.4a5.58 5.58 0 0 0-5.58 5.57v5.58h23.98v7.99h-31.98v-13.57c0-3.73 1.52-7.12 3.96-9.57a13.52 13.52 0 0 1-3.96-9.57"/><path id="ficjbz" d="M1391.13 1470.94c0-7.49 6.08-13.56 13.58-13.56h18.4v7.99h-18.4a5.58 5.58 0 1 0 0 11.15h18.4v8h-18.4a5.58 5.58 0 0 0-5.59 5.57v5.58h23.99v7.99h-31.98v-13.57c0-3.73 1.51-7.12 3.96-9.57a13.52 13.52 0 0 1-3.96-9.58"/><path id="ficjbA" d="M990.58 1590.7l6.62-14.55-7.28-3.31a8 8 0 0 1-10.59 3.96 8 8 0 1 0 3.97 10.58l6.62-14.54-7.27-3.3a15.97 15.97 0 1 0-13.25 29.08 16 16 0 0 0 21.18-7.93"/><path id="ficjbB" d="M1079.72 1562.32h-16v7.99h31.99a15.98 15.98 0 1 0-16-15.98zm0 0a8 8 0 0 0 8-7.99 8 8 0 1 1 7.99 7.99z"/><path id="ficjbC" d="M1055.78 1737.89h-15.99v7.99h31.98a15.98 15.98 0 1 0-15.99-15.98zm0 0a8 8 0 0 0 8-8 8 8 0 1 1 7.99 8z"/><path id="ficjbD" d="M1138.74 1617.74a15.98 15.98 0 1 1-31.96-.01 15.98 15.98 0 0 1 31.96 0m-8 0a7.99 7.99 0 1 0-15.97.01 7.99 7.99 0 0 0 15.98 0"/><path id="ficjbE" d="M991.74 1705.2a8 8 0 0 1-9.12-3.4l-4.1-6.53a8 8 0 0 0 11.29-.42l10.02-10.75 9.78 15.61zm-13.21-9.93l-6.78 4.24 4.1 6.53a16 16 0 0 0 18.24 6.8l35.74-10.97-4.4-7.01-7.9 2.42-12.06-19.23 5.64-6.05-4.4-7z"/><path id="ficjbF" d="M1199.27 1585.6a8 8 0 0 1-9.12-3.4l-4.1-6.53a8 8 0 0 0 11.29-.42l10.01-10.75 9.8 15.61zm-13.21-9.93l-6.78 4.24 4.1 6.53a16 16 0 0 0 18.24 6.8l35.74-10.97-4.4-7.01-7.9 2.43-12.06-19.23 5.64-6.05-4.4-7.01z"/><path id="ficjbG" d="M1226.94 1499.8a14.76 14.76 0 1 0 14.76 14.76v-29.5c0 8.14-6.6 14.74-14.76 14.74"/><path id="ficjbH" d="M1134.42 1528.57l6.28-4.94-29.66-37.67-6.28 4.94z"/><path id="ficjbI" d="M1249.9 1713.84c7.5 0 13.58 6.07 13.58 13.57v18.38h-8v-18.38a5.58 5.58 0 0 0-11.16 0v18.38h-8v-18.38c0-3.08-2.5-5.58-5.57-5.58h-5.59v23.96h-8v-31.95h13.59c3.73 0 7.12 1.51 9.58 3.95a13.54 13.54 0 0 1 9.58-3.95"/><path id="ficjbJ" d="M1286.14 1513.53l14.55 6.62 3.31-7.27a7.99 7.99 0 0 1-3.96-10.58 7.99 7.99 0 1 0-10.59 3.96l14.55 6.62 3.32-7.27a16 16 0 0 0-29.1-13.24 15.97 15.97 0 0 0 7.92 21.16"/><path id="ficjbK" d="M1341.67 1468.56l14.55 6.62 3.32-7.27a7.99 7.99 0 0 1-3.97-10.58 7.99 7.99 0 1 0-10.59 3.96l14.56 6.62 3.3-7.27a16 16 0 0 0-29.1-13.24 15.97 15.97 0 0 0 7.93 21.16"/><path id="ficjbL" d="M1391.13 1564.1v-15.98h-8v31.96a15.98 15.98 0 1 0 16-15.98zm0 0a8 8 0 0 0 8 7.99 8 8 0 1 1-8 7.99z"/><path id="ficjbM" d="M1276.79 1601.08a15.98 15.98 0 1 1-.01-31.97 15.98 15.98 0 0 1 .01 31.97m0-7.99a8 8 0 1 0 0-15.98 8 8 0 0 0 0 15.98"/><path id="ficjbN" d="M1342.62 1559.94a15.98 15.98 0 1 1-.02-31.97 15.98 15.98 0 0 1 .02 31.97m0-8a8 8 0 1 0 0-15.97 8 8 0 0 0 0 15.98"/><path id="ficjbO" d="M1175.39 1454.18a8 8 0 0 1 3.4-9.11l6.53-4.1a7.99 7.99 0 0 0 .42 11.28l10.75 10.01-15.62 9.78zm9.93-13.2l-4.25-6.77-6.53 4.09a15.98 15.98 0 0 0-6.8 18.23l10.98 35.71 7.01-4.39-2.43-7.9 19.25-12.05 6.05 5.64 7.01-4.4z"/><path id="ficjbP" d="M1266.91 1352.7a14.76 14.76 0 1 0 14.77 14.75v-29.5c0 8.14-6.61 14.75-14.77 14.75"/><path id="ficjbQ" d="M1238.07 1434.09l6.28-4.94-29.66-37.67-6.28 4.94z"/><path id="ficjbR" d="M1413.4 1294.53c7.49 0 13.57 6.07 13.57 13.56v18.4h-8v-18.4a5.58 5.58 0 0 0-11.16 0v18.4h-8v-18.4c0-3.08-2.5-5.57-5.58-5.57h-5.58v23.96h-8v-31.95h13.58c3.74 0 7.13 1.5 9.58 3.95a13.54 13.54 0 0 1 9.58-3.95"/><path id="ficjbS" d="M1319.89 1326.24l14.55 6.62 3.31-7.27a7.99 7.99 0 0 1-3.96-10.58 7.99 7.99 0 1 0-10.59 3.96l14.55 6.62 3.32-7.27a16 16 0 0 0-29.1-13.24 15.97 15.97 0 0 0 7.92 21.16"/><path id="ficjbT" d="M1390.17 1381.11v-15.97h-8v31.95a15.98 15.98 0 1 0 16-15.98zm0 0a8 8 0 0 0 8 8 8 8 0 1 1-8 7.98z"/><path id="ficjbU" d="M1292.83 1438.66a15.98 15.98 0 1 1-.01-31.96 15.98 15.98 0 0 1 0 31.96m0-7.99a8 8 0 1 0 .01-15.98 8 8 0 0 0 0 15.98"/><path id="ficjbV" d="M1224.7 1305.16a7.99 7.99 0 0 1 3.4-9.11l6.53-4.1a7.98 7.98 0 0 0 .42 11.28l10.75 10.01-15.62 9.78zm9.93-13.2l-4.25-6.77-6.53 4.09a15.98 15.98 0 0 0-6.8 18.23l10.98 35.71 7.01-4.39-2.43-7.9 19.24-12.05 6.06 5.64 7.01-4.4z"/><path id="ficjbW" d="M1310.48 1626.34a14.76 14.76 0 1 0 14.76 14.75v-29.5c0 8.15-6.6 14.75-14.76 14.75"/><path id="ficjbX" d="M1174.15 1735.24l6.29-4.94-29.66-37.67-6.29 4.94z"/><path id="ficjbY" d="M1400.7 1626.77c7.5 0 13.58 6.08 13.58 13.57v18.39h-8v-18.39a5.58 5.58 0 0 0-11.16 0v18.39h-8v-18.39c0-3.08-2.5-5.58-5.57-5.58h-5.59v23.97h-8v-31.96h13.59c3.73 0 7.12 1.51 9.58 3.96a13.54 13.54 0 0 1 9.58-3.96"/><path id="ficjbZ" d="M1217.68 1685.04l14.55 6.62 3.32-7.28a7.99 7.99 0 0 1-3.97-10.58 7.99 7.99 0 1 0-10.59 3.97l14.56 6.61 3.3-7.27a16 16 0 0 0-29.1-13.24 15.97 15.97 0 0 0 7.93 21.17"/><path id="ficjca" d="M1391.13 1705.47v-15.98h-8v31.95a15.98 15.98 0 1 0 16-15.97zm0 0a8 8 0 0 0 8 7.99 8 8 0 1 1-8 7.98z"/><path id="ficjcb" d="M1316.76 1737.9a15.98 15.98 0 1 1 0-31.96 15.98 15.98 0 0 1 0 31.96m0-7.99a8 8 0 1 0 .01-15.98 8 8 0 0 0 0 15.98"/><path id="ficjcc" d="M1529.1 868.83a14.76 14.76 0 1 0 14.75 14.75v-29.5c0 8.14-6.6 14.75-14.76 14.75"/><path id="ficjcd" d="M1496.41 962.42l6.29-4.94-29.66-37.67-6.29 4.94z"/><path id="ficjce" d="M1666.95 836.25c7.5 0 13.58 6.08 13.58 13.57v18.39h-8v-18.4a5.58 5.58 0 0 0-11.16 0v18.4h-8v-18.4c0-3.07-2.5-5.57-5.58-5.57h-5.58v23.97h-8v-31.96h13.58c3.74 0 7.13 1.51 9.58 3.95a13.54 13.54 0 0 1 9.58-3.95"/><path id="ficjcf" d="M1577.52 836.63l14.55 6.62 3.31-7.27a7.99 7.99 0 0 1-3.96-10.58 7.99 7.99 0 1 0-10.59 3.96l14.55 6.62 3.32-7.27a16 16 0 0 0-29.1-13.24 15.97 15.97 0 0 0 7.92 21.16"/><path id="ficjcg" d="M1606.63 908v-15.97h-8V924a15.98 15.98 0 1 0 16-15.98zm0 0a8 8 0 0 0 8 8 8 8 0 1 1-8 7.99z"/><path id="ficjch" d="M1551.18 967a15.98 15.98 0 1 1-.01-31.97 15.98 15.98 0 0 1 0 31.96m0-7.99a7.99 7.99 0 1 0 .01-15.98 7.99 7.99 0 0 0 0 15.98"/><path id="ficjci" d="M1463.65 820.1a8 8 0 0 1 3.4-9.12l6.53-4.09a7.99 7.99 0 0 0 .43 11.27l10.75 10.02-15.62 9.77zm9.94-13.2l-4.25-6.78-6.53 4.1a15.98 15.98 0 0 0-6.8 18.22l10.98 35.72 7.01-4.4-2.43-7.9 19.24-12.05 6.06 5.64 7.01-4.4z"/><path id="ficjcj" d="M1520.5 1158.8a14.76 14.76 0 1 0 14.77-14.75h-29.53c8.16 0 14.77 6.6 14.77 14.76"/><path id="ficjck" d="M1614.16 1191.46l-4.94-6.28-37.7 29.64 4.95 6.28z"/><path id="ficjcl" d="M1477.37 1007.65c0-7.5 6.08-13.57 13.58-13.57h18.4v7.99h-18.4a5.58 5.58 0 1 0 0 11.15h18.4v8h-18.4a5.58 5.58 0 0 0-5.58 5.57v5.58h23.98v7.99h-31.98v-13.57c0-3.73 1.52-7.12 3.96-9.57a13.52 13.52 0 0 1-3.96-9.57"/><path id="ficjcm" d="M1871.13 989.94c0-7.49 6.08-13.56 13.58-13.56h18.4v7.99h-18.4a5.58 5.58 0 1 0 0 11.15h18.4v8h-18.4a5.58 5.58 0 0 0-5.59 5.57v5.58h23.99v7.99h-31.98v-13.57c0-3.73 1.51-7.12 3.96-9.57a13.52 13.52 0 0 1-3.96-9.58"/><path id="ficjcn" d="M1470.58 1109.7l6.62-14.55-7.28-3.31a8 8 0 0 1-10.59 3.96 8 8 0 1 0 3.97 10.58l6.62-14.54-7.27-3.3a15.97 15.97 0 1 0-13.25 29.08 16 16 0 0 0 21.18-7.93"/><path id="ficjco" d="M1559.72 1081.32h-16v7.99h31.99a15.98 15.98 0 1 0-16-15.98zm0 0a8 8 0 0 0 8-7.99 8 8 0 1 1 7.99 7.99z"/><path id="ficjcp" d="M1535.78 1256.89h-15.99v7.99h31.98a15.98 15.98 0 1 0-15.99-15.98zm0 0a8 8 0 0 0 8-8 8 8 0 1 1 7.99 8z"/><path id="ficjcq" d="M1618.74 1136.74a15.98 15.98 0 1 1-31.96-.01 15.98 15.98 0 0 1 31.96 0m-8 0a7.99 7.99 0 1 0-15.97.01 7.99 7.99 0 0 0 15.98 0"/><path id="ficjcr" d="M1471.74 1224.2a8 8 0 0 1-9.12-3.4l-4.1-6.53a8 8 0 0 0 11.29-.42l10.02-10.75 9.78 15.61zm-13.21-9.93l-6.78 4.24 4.1 6.53a16 16 0 0 0 18.24 6.8l35.74-10.97-4.4-7.01-7.9 2.42-12.06-19.23 5.64-6.05-4.4-7z"/><path id="ficjcs" d="M1679.27 1104.6a8 8 0 0 1-9.12-3.4l-4.1-6.53a8 8 0 0 0 11.29-.42l10.01-10.75 9.8 15.61zm-13.21-9.93l-6.78 4.24 4.1 6.53a16 16 0 0 0 18.24 6.8l35.74-10.97-4.4-7.01-7.9 2.43-12.06-19.23 5.64-6.05-4.4-7.01z"/><path id="ficjct" d="M1706.94 1018.8a14.76 14.76 0 1 0 14.76 14.76v-29.5c0 8.14-6.6 14.74-14.76 14.74"/><path id="ficjcu" d="M1614.42 1047.57l6.28-4.94-29.66-37.67-6.28 4.94z"/><path id="ficjcv" d="M1729.9 1232.84c7.5 0 13.58 6.07 13.58 13.57v18.38h-8v-18.38a5.58 5.58 0 0 0-11.16 0v18.38h-8v-18.38c0-3.08-2.5-5.58-5.57-5.58h-5.59v23.96h-8v-31.95h13.59c3.73 0 7.12 1.51 9.58 3.95a13.54 13.54 0 0 1 9.58-3.95"/><path id="ficjcw" d="M1766.14 1032.53l14.55 6.62 3.31-7.27a7.99 7.99 0 0 1-3.96-10.58 7.99 7.99 0 1 0-10.59 3.96l14.55 6.62 3.32-7.27a16 16 0 0 0-29.1-13.24 15.97 15.97 0 0 0 7.92 21.16"/><path id="ficjcx" d="M1821.67 987.56l14.55 6.62 3.32-7.27a7.99 7.99 0 0 1-3.97-10.58 7.99 7.99 0 1 0-10.59 3.96l14.56 6.62 3.3-7.27a16 16 0 0 0-29.1-13.24 15.97 15.97 0 0 0 7.93 21.16"/><path id="ficjcy" d="M1871.13 1083.1v-15.98h-8v31.96a15.98 15.98 0 1 0 16-15.98zm0 0a8 8 0 0 0 8 7.99 8 8 0 1 1-8 7.99z"/><path id="ficjcz" d="M1756.79 1120.08a15.98 15.98 0 1 1-.01-31.97 15.98 15.98 0 0 1 .01 31.97m0-7.99a8 8 0 1 0 0-15.98 8 8 0 0 0 0 15.98"/><path id="ficjcA" d="M1822.62 1078.94a15.98 15.98 0 1 1-.02-31.97 15.98 15.98 0 0 1 .02 31.97m0-8a8 8 0 1 0 0-15.97 8 8 0 0 0 0 15.98"/><path id="ficjcB" d="M1655.39 973.18a8 8 0 0 1 3.4-9.11l6.53-4.1a7.99 7.99 0 0 0 .42 11.28l10.75 10.01-15.62 9.78zm9.93-13.2l-4.25-6.77-6.53 4.09a15.98 15.98 0 0 0-6.8 18.23l10.98 35.71 7.01-4.39-2.43-7.9 19.25-12.05 6.05 5.64 7.01-4.4z"/><path id="ficjcC" d="M1746.91 871.7a14.76 14.76 0 1 0 14.77 14.75v-29.5c0 8.14-6.61 14.75-14.77 14.75"/><path id="ficjcD" d="M1718.07 953.09l6.28-4.94-29.66-37.67-6.28 4.94z"/><path id="ficjcE" d="M1893.4 813.53c7.49 0 13.57 6.07 13.57 13.56v18.4h-8v-18.4a5.58 5.58 0 0 0-11.16 0v18.4h-8v-18.4c0-3.08-2.5-5.57-5.58-5.57h-5.58v23.96h-8v-31.95h13.58c3.74 0 7.13 1.5 9.58 3.95a13.54 13.54 0 0 1 9.58-3.95"/><path id="ficjcF" d="M1799.89 845.24l14.55 6.62 3.31-7.27a7.99 7.99 0 0 1-3.96-10.58 7.99 7.99 0 1 0-10.59 3.96l14.55 6.62 3.32-7.27a16 16 0 0 0-29.1-13.24 15.97 15.97 0 0 0 7.92 21.16"/><path id="ficjcG" d="M1870.17 900.11v-15.97h-8v31.95a15.98 15.98 0 1 0 16-15.98zm0 0a8 8 0 0 0 8 8 8 8 0 1 1-8 7.98z"/><path id="ficjcH" d="M1772.83 957.66a15.98 15.98 0 1 1-.01-31.96 15.98 15.98 0 0 1 0 31.96m0-7.99a8 8 0 1 0 .01-15.98 8 8 0 0 0 0 15.98"/><path id="ficjcI" d="M1704.7 824.16a7.99 7.99 0 0 1 3.4-9.11l6.53-4.1a7.98 7.98 0 0 0 .42 11.28l10.75 10.01-15.62 9.78zm9.93-13.2l-4.25-6.77-6.53 4.09a15.98 15.98 0 0 0-6.8 18.23l10.98 35.71 7.01-4.39-2.43-7.9 19.24-12.05 6.06 5.64 7.01-4.4z"/><path id="ficjcJ" d="M1790.48 1145.34a14.76 14.76 0 1 0 14.76 14.75v-29.5c0 8.15-6.6 14.75-14.76 14.75"/><path id="ficjcK" d="M1654.15 1254.24l6.29-4.94-29.66-37.67-6.29 4.94z"/><path id="ficjcL" d="M1880.7 1145.77c7.5 0 13.58 6.08 13.58 13.57v18.39h-8v-18.39a5.58 5.58 0 0 0-11.16 0v18.39h-8v-18.39c0-3.08-2.5-5.58-5.57-5.58h-5.59v23.97h-8v-31.96h13.59c3.73 0 7.12 1.51 9.58 3.96a13.54 13.54 0 0 1 9.58-3.96"/><path id="ficjcM" d="M1697.68 1204.04l14.55 6.62 3.32-7.28a7.99 7.99 0 0 1-3.97-10.58 7.99 7.99 0 1 0-10.59 3.97l14.56 6.61 3.3-7.27a16 16 0 0 0-29.1-13.24 15.97 15.97 0 0 0 7.93 21.17"/><path id="ficjcN" d="M1871.13 1224.47v-15.98h-8v31.95a15.98 15.98 0 1 0 16-15.97zm0 0a8 8 0 0 0 8 7.99 8 8 0 1 1-8 7.98z"/><path id="ficjcO" d="M1796.76 1256.9a15.98 15.98 0 1 1 0-31.96 15.98 15.98 0 0 1 0 31.96m0-7.99a8 8 0 1 0 .01-15.98 8 8 0 0 0 0 15.98"/><path id="ficjcP" d="M1529.1 1349.83a14.76 14.76 0 1 0 14.75 14.75v-29.5c0 8.14-6.6 14.75-14.76 14.75"/><path id="ficjcQ" d="M1496.41 1443.42l6.29-4.94-29.66-37.67-6.29 4.94z"/><path id="ficjcR" d="M1666.95 1317.25c7.5 0 13.58 6.08 13.58 13.57v18.39h-8v-18.4a5.58 5.58 0 0 0-11.16 0v18.4h-8v-18.4c0-3.07-2.5-5.57-5.58-5.57h-5.58v23.97h-8v-31.96h13.58c3.74 0 7.13 1.51 9.58 3.95a13.54 13.54 0 0 1 9.58-3.95"/><path id="ficjcS" d="M1577.52 1317.63l14.55 6.62 3.31-7.27a7.99 7.99 0 0 1-3.96-10.58 7.99 7.99 0 1 0-10.59 3.96l14.55 6.62 3.32-7.27a16 16 0 0 0-29.1-13.24 15.97 15.97 0 0 0 7.92 21.16"/><path id="ficjcT" d="M1606.63 1389v-15.97h-8V1405a15.98 15.98 0 1 0 16-15.98zm0 0a8 8 0 0 0 8 8 8 8 0 1 1-8 7.99z"/><path id="ficjcU" d="M1551.18 1448a15.98 15.98 0 1 1-.01-31.97 15.98 15.98 0 0 1 0 31.96m0-7.99a7.99 7.99 0 1 0 .01-15.98 7.99 7.99 0 0 0 0 15.98"/><path id="ficjcV" d="M1463.65 1301.1a8 8 0 0 1 3.4-9.12l6.53-4.09a7.99 7.99 0 0 0 .43 11.27l10.75 10.02-15.62 9.77zm9.94-13.2l-4.25-6.78-6.53 4.1a15.98 15.98 0 0 0-6.8 18.22l10.98 35.72 7.01-4.4-2.43-7.9 19.24-12.05 6.06 5.64 7.01-4.4z"/><path id="ficjcW" d="M1520.5 1639.8a14.76 14.76 0 1 0 14.77-14.75h-29.53c8.16 0 14.77 6.6 14.77 14.76"/><path id="ficjcX" d="M1614.16 1672.46l-4.94-6.28-37.7 29.64 4.95 6.28z"/><path id="ficjcY" d="M1477.37 1488.65c0-7.5 6.08-13.57 13.58-13.57h18.4v7.99h-18.4a5.58 5.58 0 1 0 0 11.15h18.4v8h-18.4a5.58 5.58 0 0 0-5.58 5.57v5.58h23.98v7.99h-31.98v-13.57c0-3.73 1.52-7.12 3.96-9.57a13.52 13.52 0 0 1-3.96-9.57"/><path id="ficjcZ" d="M1871.13 1470.94c0-7.49 6.08-13.56 13.58-13.56h18.4v7.99h-18.4a5.58 5.58 0 1 0 0 11.15h18.4v8h-18.4a5.58 5.58 0 0 0-5.59 5.57v5.58h23.99v7.99h-31.98v-13.57c0-3.73 1.51-7.12 3.96-9.57a13.52 13.52 0 0 1-3.96-9.58"/><path id="ficjda" d="M1470.58 1590.7l6.62-14.55-7.28-3.31a8 8 0 0 1-10.59 3.96 8 8 0 1 0 3.97 10.58l6.62-14.54-7.27-3.3a15.97 15.97 0 1 0-13.25 29.08 16 16 0 0 0 21.18-7.93"/><path id="ficjdb" d="M1559.72 1562.32h-16v7.99h31.99a15.98 15.98 0 1 0-16-15.98zm0 0a8 8 0 0 0 8-7.99 8 8 0 1 1 7.99 7.99z"/><path id="ficjdc" d="M1535.78 1737.89h-15.99v7.99h31.98a15.98 15.98 0 1 0-15.99-15.98zm0 0a8 8 0 0 0 8-8 8 8 0 1 1 7.99 8z"/><path id="ficjdd" d="M1618.74 1617.74a15.98 15.98 0 1 1-31.96-.01 15.98 15.98 0 0 1 31.96 0m-8 0a7.99 7.99 0 1 0-15.97.01 7.99 7.99 0 0 0 15.98 0"/><path id="ficjde" d="M1471.74 1705.2a8 8 0 0 1-9.12-3.4l-4.1-6.53a8 8 0 0 0 11.29-.42l10.02-10.75 9.78 15.61zm-13.21-9.93l-6.78 4.24 4.1 6.53a16 16 0 0 0 18.24 6.8l35.74-10.97-4.4-7.01-7.9 2.42-12.06-19.23 5.64-6.05-4.4-7z"/><path id="ficjdf" d="M1679.27 1585.6a8 8 0 0 1-9.12-3.4l-4.1-6.53a8 8 0 0 0 11.29-.42l10.01-10.75 9.8 15.61zm-13.21-9.93l-6.78 4.24 4.1 6.53a16 16 0 0 0 18.24 6.8l35.74-10.97-4.4-7.01-7.9 2.43-12.06-19.23 5.64-6.05-4.4-7.01z"/><path id="ficjdg" d="M1706.94 1499.8a14.76 14.76 0 1 0 14.76 14.76v-29.5c0 8.14-6.6 14.74-14.76 14.74"/><path id="ficjdh" d="M1614.42 1528.57l6.28-4.94-29.66-37.67-6.28 4.94z"/><path id="ficjdi" d="M1729.9 1713.84c7.5 0 13.58 6.07 13.58 13.57v18.38h-8v-18.38a5.58 5.58 0 0 0-11.16 0v18.38h-8v-18.38c0-3.08-2.5-5.58-5.57-5.58h-5.59v23.96h-8v-31.95h13.59c3.73 0 7.12 1.51 9.58 3.95a13.54 13.54 0 0 1 9.58-3.95"/><path id="ficjdj" d="M1766.14 1513.53l14.55 6.62 3.31-7.27a7.99 7.99 0 0 1-3.96-10.58 7.99 7.99 0 1 0-10.59 3.96l14.55 6.62 3.32-7.27a16 16 0 0 0-29.1-13.24 15.97 15.97 0 0 0 7.92 21.16"/><path id="ficjdk" d="M1821.67 1468.56l14.55 6.62 3.32-7.27a7.99 7.99 0 0 1-3.97-10.58 7.99 7.99 0 1 0-10.59 3.96l14.56 6.62 3.3-7.27a16 16 0 0 0-29.1-13.24 15.97 15.97 0 0 0 7.93 21.16"/><path id="ficjdl" d="M1871.13 1564.1v-15.98h-8v31.96a15.98 15.98 0 1 0 16-15.98zm0 0a8 8 0 0 0 8 7.99 8 8 0 1 1-8 7.99z"/><path id="ficjdm" d="M1756.79 1601.08a15.98 15.98 0 1 1-.01-31.97 15.98 15.98 0 0 1 .01 31.97m0-7.99a8 8 0 1 0 0-15.98 8 8 0 0 0 0 15.98"/><path id="ficjdn" d="M1822.62 1559.94a15.98 15.98 0 1 1-.02-31.97 15.98 15.98 0 0 1 .02 31.97m0-8a8 8 0 1 0 0-15.97 8 8 0 0 0 0 15.98"/><path id="ficjdo" d="M1655.39 1454.18a8 8 0 0 1 3.4-9.11l6.53-4.1a7.99 7.99 0 0 0 .42 11.28l10.75 10.01-15.62 9.78zm9.93-13.2l-4.25-6.77-6.53 4.09a15.98 15.98 0 0 0-6.8 18.23l10.98 35.71 7.01-4.39-2.43-7.9 19.25-12.05 6.05 5.64 7.01-4.4z"/><path id="ficjdp" d="M1746.91 1352.7a14.76 14.76 0 1 0 14.77 14.75v-29.5c0 8.14-6.61 14.75-14.77 14.75"/><path id="ficjdq" d="M1718.07 1434.09l6.28-4.94-29.66-37.67-6.28 4.94z"/><path id="ficjdr" d="M1893.4 1294.53c7.49 0 13.57 6.07 13.57 13.56v18.4h-8v-18.4a5.58 5.58 0 0 0-11.16 0v18.4h-8v-18.4c0-3.08-2.5-5.57-5.58-5.57h-5.58v23.96h-8v-31.95h13.58c3.74 0 7.13 1.5 9.58 3.95a13.54 13.54 0 0 1 9.58-3.95"/><path id="ficjds" d="M1799.89 1326.24l14.55 6.62 3.31-7.27a7.99 7.99 0 0 1-3.96-10.58 7.99 7.99 0 1 0-10.59 3.96l14.55 6.62 3.32-7.27a16 16 0 0 0-29.1-13.24 15.97 15.97 0 0 0 7.92 21.16"/><path id="ficjdt" d="M1870.17 1381.11v-15.97h-8v31.95a15.98 15.98 0 1 0 16-15.98zm0 0a8 8 0 0 0 8 8 8 8 0 1 1-8 7.98z"/><path id="ficjdu" d="M1772.83 1438.66a15.98 15.98 0 1 1-.01-31.96 15.98 15.98 0 0 1 0 31.96m0-7.99a8 8 0 1 0 .01-15.98 8 8 0 0 0 0 15.98"/><path id="ficjdv" d="M1704.7 1305.16a7.99 7.99 0 0 1 3.4-9.11l6.53-4.1a7.98 7.98 0 0 0 .42 11.28l10.75 10.01-15.62 9.78zm9.93-13.2l-4.25-6.77-6.53 4.09a15.98 15.98 0 0 0-6.8 18.23l10.98 35.71 7.01-4.39-2.43-7.9 19.24-12.05 6.06 5.64 7.01-4.4z"/><path id="ficjdw" d="M1790.48 1626.34a14.76 14.76 0 1 0 14.76 14.75v-29.5c0 8.15-6.6 14.75-14.76 14.75"/><path id="ficjdx" d="M1654.15 1735.24l6.29-4.94-29.66-37.67-6.29 4.94z"/><path id="ficjdy" d="M1880.7 1626.77c7.5 0 13.58 6.08 13.58 13.57v18.39h-8v-18.39a5.58 5.58 0 0 0-11.16 0v18.39h-8v-18.39c0-3.08-2.5-5.58-5.57-5.58h-5.59v23.97h-8v-31.96h13.59c3.73 0 7.12 1.51 9.58 3.96a13.54 13.54 0 0 1 9.58-3.96"/><path id="ficjdz" d="M1697.68 1685.04l14.55 6.62 3.32-7.28a7.99 7.99 0 0 1-3.97-10.58 7.99 7.99 0 1 0-10.59 3.97l14.56 6.61 3.3-7.27a16 16 0 0 0-29.1-13.24 15.97 15.97 0 0 0 7.93 21.17"/><path id="ficjdA" d="M1871.13 1705.47v-15.98h-8v31.95a15.98 15.98 0 1 0 16-15.97zm0 0a8 8 0 0 0 8 7.99 8 8 0 1 1-8 7.98z"/><path id="ficjdB" d="M1796.76 1737.9a15.98 15.98 0 1 1 0-31.96 15.98 15.98 0 0 1 0 31.96m0-7.99a8 8 0 1 0 .01-15.98 8 8 0 0 0 0 15.98"/><path id="ficjdC" d="M556.1 868.83a14.76 14.76 0 1 0 14.75 14.75v-29.5c0 8.14-6.6 14.75-14.76 14.75"/><path id="ficjdD" d="M523.41 962.42l6.29-4.94-29.66-37.67-6.29 4.94z"/><path id="ficjdE" d="M693.95 836.25c7.5 0 13.58 6.08 13.58 13.57v18.39h-8v-18.4a5.58 5.58 0 0 0-11.16 0v18.4h-8v-18.4c0-3.07-2.5-5.57-5.58-5.57h-5.58v23.97h-8v-31.96h13.58c3.74 0 7.13 1.51 9.58 3.95a13.54 13.54 0 0 1 9.58-3.95"/><path id="ficjdF" d="M604.52 836.63l14.55 6.62 3.31-7.27a7.99 7.99 0 0 1-3.96-10.58 7.99 7.99 0 1 0-10.59 3.96l14.55 6.62 3.32-7.27a16 16 0 0 0-29.1-13.24 15.97 15.97 0 0 0 7.92 21.16"/><path id="ficjdG" d="M633.63 908v-15.97h-8V924a15.98 15.98 0 1 0 16-15.98zm0 0a8 8 0 0 0 8 8 8 8 0 1 1-8 7.99z"/><path id="ficjdH" d="M578.18 967a15.98 15.98 0 1 1-.01-31.97 15.98 15.98 0 0 1 0 31.96m0-7.99a7.99 7.99 0 1 0 .01-15.98 7.99 7.99 0 0 0 0 15.98"/><path id="ficjdI" d="M490.65 820.1a8 8 0 0 1 3.4-9.12l6.53-4.09a7.99 7.99 0 0 0 .43 11.27l10.75 10.02-15.62 9.77zm9.94-13.2l-4.25-6.78-6.53 4.1a15.98 15.98 0 0 0-6.8 18.22L494 858.16l7.01-4.4-2.43-7.9 19.24-12.05 6.06 5.64 7.01-4.4z"/><path id="ficjdJ" d="M547.5 1158.8a14.76 14.76 0 1 0 14.77-14.75h-29.53c8.16 0 14.77 6.6 14.77 14.76"/><path id="ficjdK" d="M641.16 1191.46l-4.94-6.28-37.7 29.64 4.95 6.28z"/><path id="ficjdL" d="M504.37 1007.65c0-7.5 6.08-13.57 13.58-13.57h18.4v7.99h-18.4a5.58 5.58 0 1 0 0 11.15h18.4v8h-18.4a5.58 5.58 0 0 0-5.58 5.57v5.58h23.98v7.99h-31.98v-13.57c0-3.73 1.52-7.12 3.96-9.57a13.52 13.52 0 0 1-3.96-9.57"/><path id="ficjdM" d="M898.13 989.94c0-7.49 6.08-13.56 13.58-13.56h18.4v7.99h-18.4a5.58 5.58 0 1 0 0 11.15h18.4v8h-18.4a5.58 5.58 0 0 0-5.59 5.57v5.58h23.99v7.99h-31.98v-13.57c0-3.73 1.51-7.12 3.96-9.57a13.52 13.52 0 0 1-3.96-9.58"/><path id="ficjdN" d="M497.58 1109.7l6.62-14.55-7.28-3.31a8 8 0 0 1-10.59 3.96 8 8 0 1 0 3.97 10.58l6.62-14.54-7.27-3.3a15.97 15.97 0 1 0-13.25 29.08 16 16 0 0 0 21.18-7.93"/><path id="ficjdO" d="M586.72 1081.32h-16v7.99h31.99a15.98 15.98 0 1 0-16-15.98zm0 0a8 8 0 0 0 8-7.99 8 8 0 1 1 7.99 7.99z"/><path id="ficjdP" d="M562.78 1256.89h-15.99v7.99h31.98a15.98 15.98 0 1 0-15.99-15.98zm0 0a8 8 0 0 0 8-8 8 8 0 1 1 7.99 8z"/><path id="ficjdQ" d="M645.74 1136.74a15.98 15.98 0 1 1-31.96-.01 15.98 15.98 0 0 1 31.96 0m-8 0a7.99 7.99 0 1 0-15.97.01 7.99 7.99 0 0 0 15.98 0"/><path id="ficjdR" d="M498.74 1224.2a8 8 0 0 1-9.12-3.4l-4.1-6.53a8 8 0 0 0 11.29-.42l10.02-10.75 9.78 15.61zm-13.21-9.93l-6.78 4.24 4.1 6.53a16 16 0 0 0 18.24 6.8l35.74-10.97-4.4-7.01-7.9 2.42-12.06-19.23 5.64-6.05-4.4-7z"/><path id="ficjdS" d="M706.27 1104.6a8 8 0 0 1-9.12-3.4l-4.1-6.53a8 8 0 0 0 11.29-.42l10.01-10.75 9.8 15.61zm-13.21-9.93l-6.78 4.24 4.1 6.53a16 16 0 0 0 18.24 6.8l35.74-10.97-4.4-7.01-7.9 2.43-12.06-19.23 5.64-6.05-4.4-7.01z"/><path id="ficjdT" d="M733.94 1018.8a14.76 14.76 0 1 0 14.76 14.76v-29.5c0 8.14-6.6 14.74-14.76 14.74"/><path id="ficjdU" d="M641.42 1047.57l6.28-4.94-29.66-37.67-6.28 4.94z"/><path id="ficjdV" d="M756.9 1232.84c7.5 0 13.58 6.07 13.58 13.57v18.38h-8v-18.38a5.58 5.58 0 0 0-11.16 0v18.38h-8v-18.38c0-3.08-2.5-5.58-5.57-5.58h-5.59v23.96h-8v-31.95h13.59c3.73 0 7.12 1.51 9.58 3.95a13.54 13.54 0 0 1 9.58-3.95"/><path id="ficjdW" d="M793.14 1032.53l14.55 6.62 3.31-7.27a7.99 7.99 0 0 1-3.96-10.58 7.99 7.99 0 1 0-10.59 3.96l14.55 6.62 3.31-7.27a16 16 0 0 0-29.1-13.24 15.97 15.97 0 0 0 7.93 21.16"/><path id="ficjdX" d="M848.67 987.56l14.55 6.62 3.32-7.27a7.99 7.99 0 0 1-3.97-10.58 7.99 7.99 0 1 0-10.59 3.96l14.56 6.62 3.3-7.27a16 16 0 0 0-29.1-13.24 15.97 15.97 0 0 0 7.93 21.16"/><path id="ficjdY" d="M898.13 1083.1v-15.98h-8v31.96a15.98 15.98 0 1 0 16-15.98zm0 0a8 8 0 0 0 8 7.99 8 8 0 1 1-8 7.99z"/><path id="ficjdZ" d="M783.79 1120.08a15.98 15.98 0 1 1-.01-31.97 15.98 15.98 0 0 1 .01 31.97m0-7.99a8 8 0 1 0 0-15.98 8 8 0 0 0 0 15.98"/><path id="ficjea" d="M849.62 1078.94a15.98 15.98 0 1 1-.02-31.97 15.98 15.98 0 0 1 .02 31.97m0-8a8 8 0 1 0 0-15.97 8 8 0 0 0 0 15.98"/><path id="ficjeb" d="M682.39 973.18a8 8 0 0 1 3.4-9.11l6.53-4.1a7.99 7.99 0 0 0 .42 11.28l10.75 10.01-15.62 9.78zm9.93-13.2l-4.25-6.77-6.53 4.09a15.98 15.98 0 0 0-6.8 18.23l10.98 35.71 7.01-4.39-2.43-7.9 19.25-12.05 6.05 5.64 7.01-4.4z"/><path id="ficjec" d="M773.91 871.7a14.76 14.76 0 1 0 14.77 14.75v-29.5c0 8.14-6.61 14.75-14.77 14.75"/><path id="ficjed" d="M745.07 953.09l6.28-4.94-29.66-37.67-6.28 4.94z"/><path id="ficjee" d="M920.4 813.53c7.49 0 13.57 6.07 13.57 13.56v18.4h-8v-18.4a5.58 5.58 0 0 0-11.16 0v18.4h-8v-18.4c0-3.08-2.5-5.57-5.58-5.57h-5.58v23.96h-8v-31.95h13.58c3.74 0 7.13 1.5 9.58 3.95a13.54 13.54 0 0 1 9.58-3.95"/><path id="ficjef" d="M826.89 845.24l14.55 6.62 3.31-7.27A7.99 7.99 0 0 1 840.8 834a7.99 7.99 0 1 0-10.59 3.96l14.55 6.62 3.32-7.27a16 16 0 0 0-29.1-13.24 15.97 15.97 0 0 0 7.92 21.16"/><path id="ficjeg" d="M897.17 900.11v-15.97h-8v31.95a15.98 15.98 0 1 0 16-15.98zm0 0a8 8 0 0 0 8 8 8 8 0 1 1-8 7.98z"/><path id="ficjeh" d="M799.83 957.66a15.98 15.98 0 1 1-.01-31.96 15.98 15.98 0 0 1 0 31.96m0-7.99a8 8 0 1 0 .01-15.98 8 8 0 0 0 0 15.98"/><path id="ficjei" d="M731.7 824.16a7.99 7.99 0 0 1 3.4-9.11l6.53-4.1a7.98 7.98 0 0 0 .42 11.28l10.75 10.01-15.62 9.78zm9.93-13.2l-4.25-6.77-6.53 4.09a15.98 15.98 0 0 0-6.8 18.23l10.98 35.71 7.01-4.39-2.43-7.9 19.24-12.05 6.06 5.64 7.01-4.4z"/><path id="ficjej" d="M817.48 1145.34a14.76 14.76 0 1 0 14.76 14.75v-29.5c0 8.15-6.6 14.75-14.76 14.75"/><path id="ficjek" d="M681.15 1254.24l6.29-4.94-29.66-37.67-6.29 4.94z"/><path id="ficjel" d="M907.7 1145.77c7.5 0 13.58 6.08 13.58 13.57v18.39h-8v-18.39a5.58 5.58 0 0 0-11.16 0v18.39h-8v-18.39c0-3.08-2.5-5.58-5.57-5.58h-5.59v23.97h-8v-31.96h13.59c3.73 0 7.12 1.51 9.58 3.96a13.54 13.54 0 0 1 9.58-3.96"/><path id="ficjem" d="M724.68 1204.04l14.55 6.62 3.32-7.28a7.99 7.99 0 0 1-3.97-10.58 7.99 7.99 0 1 0-10.59 3.97l14.56 6.61 3.3-7.27a16 16 0 0 0-29.1-13.24 15.97 15.97 0 0 0 7.93 21.17"/><path id="ficjen" d="M898.13 1224.47v-15.98h-8v31.95a15.98 15.98 0 1 0 16-15.97zm0 0a8 8 0 0 0 8 7.99 8 8 0 1 1-8 7.98z"/><path id="ficjeo" d="M823.76 1256.9a15.98 15.98 0 1 1 0-31.96 15.98 15.98 0 0 1 0 31.96m0-7.99a8 8 0 1 0 .01-15.98 8 8 0 0 0 0 15.98"/><path id="ficjep" d="M556.1 1349.83a14.76 14.76 0 1 0 14.75 14.75v-29.5c0 8.14-6.6 14.75-14.76 14.75"/><path id="ficjeq" d="M523.41 1443.42l6.29-4.94-29.66-37.67-6.29 4.94z"/><path id="ficjer" d="M693.95 1317.25c7.5 0 13.58 6.08 13.58 13.57v18.39h-8v-18.4a5.58 5.58 0 0 0-11.16 0v18.4h-8v-18.4c0-3.07-2.5-5.57-5.58-5.57h-5.58v23.97h-8v-31.96h13.58c3.74 0 7.13 1.51 9.58 3.95a13.54 13.54 0 0 1 9.58-3.95"/><path id="ficjes" d="M604.52 1317.63l14.55 6.62 3.31-7.27a7.99 7.99 0 0 1-3.96-10.58 7.99 7.99 0 1 0-10.59 3.96l14.55 6.62 3.32-7.27a16 16 0 0 0-29.1-13.24 15.97 15.97 0 0 0 7.92 21.16"/><path id="ficjet" d="M633.63 1389v-15.97h-8V1405a15.98 15.98 0 1 0 16-15.98zm0 0a8 8 0 0 0 8 8 8 8 0 1 1-8 7.99z"/><path id="ficjeu" d="M578.18 1448a15.98 15.98 0 1 1-.01-31.97 15.98 15.98 0 0 1 0 31.96m0-7.99a7.99 7.99 0 1 0 .01-15.98 7.99 7.99 0 0 0 0 15.98"/><path id="ficjev" d="M490.65 1301.1a8 8 0 0 1 3.4-9.12l6.53-4.09a7.99 7.99 0 0 0 .43 11.27l10.75 10.02-15.62 9.77zm9.94-13.2l-4.25-6.78-6.53 4.1a15.98 15.98 0 0 0-6.8 18.22l10.98 35.72 7.01-4.4-2.43-7.9 19.24-12.05 6.06 5.64 7.01-4.4z"/><path id="ficjew" d="M547.5 1639.8a14.76 14.76 0 1 0 14.77-14.75h-29.53c8.16 0 14.77 6.6 14.77 14.76"/><path id="ficjex" d="M641.16 1672.46l-4.94-6.28-37.7 29.64 4.95 6.28z"/><path id="ficjey" d="M504.37 1488.65c0-7.5 6.08-13.57 13.58-13.57h18.4v7.99h-18.4a5.58 5.58 0 1 0 0 11.15h18.4v8h-18.4a5.58 5.58 0 0 0-5.58 5.57v5.58h23.98v7.99h-31.98v-13.57c0-3.73 1.52-7.12 3.96-9.57a13.52 13.52 0 0 1-3.96-9.57"/><path id="ficjez" d="M898.13 1470.94c0-7.49 6.08-13.56 13.58-13.56h18.4v7.99h-18.4a5.58 5.58 0 1 0 0 11.15h18.4v8h-18.4a5.58 5.58 0 0 0-5.59 5.57v5.58h23.99v7.99h-31.98v-13.57c0-3.73 1.51-7.12 3.96-9.57a13.52 13.52 0 0 1-3.96-9.58"/><path id="ficjeA" d="M497.58 1590.7l6.62-14.55-7.28-3.31a8 8 0 0 1-10.59 3.96 8 8 0 1 0 3.97 10.58l6.62-14.54-7.27-3.3a15.97 15.97 0 1 0-13.25 29.08 16 16 0 0 0 21.18-7.93"/><path id="ficjeB" d="M586.72 1562.32h-16v7.99h31.99a15.98 15.98 0 1 0-16-15.98zm0 0a8 8 0 0 0 8-7.99 8 8 0 1 1 7.99 7.99z"/><path id="ficjeC" d="M562.78 1737.89h-15.99v7.99h31.98a15.98 15.98 0 1 0-15.99-15.98zm0 0a8 8 0 0 0 8-8 8 8 0 1 1 7.99 8z"/><path id="ficjeD" d="M645.74 1617.74a15.98 15.98 0 1 1-31.96-.01 15.98 15.98 0 0 1 31.96 0m-8 0a7.99 7.99 0 1 0-15.97.01 7.99 7.99 0 0 0 15.98 0"/><path id="ficjeE" d="M498.74 1705.2a8 8 0 0 1-9.12-3.4l-4.1-6.53a8 8 0 0 0 11.29-.42l10.02-10.75 9.78 15.61zm-13.21-9.93l-6.78 4.24 4.1 6.53a16 16 0 0 0 18.24 6.8l35.74-10.97-4.4-7.01-7.9 2.42-12.06-19.23 5.64-6.05-4.4-7z"/><path id="ficjeF" d="M706.27 1585.6a8 8 0 0 1-9.12-3.4l-4.1-6.53a8 8 0 0 0 11.29-.42l10.01-10.75 9.8 15.61zm-13.21-9.93l-6.78 4.24 4.1 6.53a16 16 0 0 0 18.24 6.8l35.74-10.97-4.4-7.01-7.9 2.43-12.06-19.23 5.64-6.05-4.4-7.01z"/><path id="ficjeG" d="M733.94 1499.8a14.76 14.76 0 1 0 14.76 14.76v-29.5c0 8.14-6.6 14.74-14.76 14.74"/><path id="ficjeH" d="M641.42 1528.57l6.28-4.94-29.66-37.67-6.28 4.94z"/><path id="ficjeI" d="M756.9 1713.84c7.5 0 13.58 6.07 13.58 13.57v18.38h-8v-18.38a5.58 5.58 0 0 0-11.16 0v18.38h-8v-18.38c0-3.08-2.5-5.58-5.57-5.58h-5.59v23.96h-8v-31.95h13.59c3.73 0 7.12 1.51 9.58 3.95a13.54 13.54 0 0 1 9.58-3.95"/><path id="ficjeJ" d="M793.14 1513.53l14.55 6.62 3.31-7.27a7.99 7.99 0 0 1-3.96-10.58 7.99 7.99 0 1 0-10.59 3.96l14.55 6.62 3.31-7.27a16 16 0 0 0-29.1-13.24 15.97 15.97 0 0 0 7.93 21.16"/><path id="ficjeK" d="M848.67 1468.56l14.55 6.62 3.32-7.27a7.99 7.99 0 0 1-3.97-10.58 7.99 7.99 0 1 0-10.59 3.96l14.56 6.62 3.3-7.27a16 16 0 0 0-29.1-13.24 15.97 15.97 0 0 0 7.93 21.16"/><path id="ficjeL" d="M898.13 1564.1v-15.98h-8v31.96a15.98 15.98 0 1 0 16-15.98zm0 0a8 8 0 0 0 8 7.99 8 8 0 1 1-8 7.99z"/><path id="ficjeM" d="M783.79 1601.08a15.98 15.98 0 1 1-.01-31.97 15.98 15.98 0 0 1 .01 31.97m0-7.99a8 8 0 1 0 0-15.98 8 8 0 0 0 0 15.98"/><path id="ficjeN" d="M849.62 1559.94a15.98 15.98 0 1 1-.02-31.97 15.98 15.98 0 0 1 .02 31.97m0-8a8 8 0 1 0 0-15.97 8 8 0 0 0 0 15.98"/><path id="ficjeO" d="M682.39 1454.18a8 8 0 0 1 3.4-9.11l6.53-4.1a7.99 7.99 0 0 0 .42 11.28l10.75 10.01-15.62 9.78zm9.93-13.2l-4.25-6.77-6.53 4.09a15.98 15.98 0 0 0-6.8 18.23l10.98 35.71 7.01-4.39-2.43-7.9 19.25-12.05 6.05 5.64 7.01-4.4z"/><path id="ficjeP" d="M773.91 1352.7a14.76 14.76 0 1 0 14.77 14.75v-29.5c0 8.14-6.61 14.75-14.77 14.75"/><path id="ficjeQ" d="M745.07 1434.09l6.28-4.94-29.66-37.67-6.28 4.94z"/><path id="ficjeR" d="M920.4 1294.53c7.49 0 13.57 6.07 13.57 13.56v18.4h-8v-18.4a5.58 5.58 0 0 0-11.16 0v18.4h-8v-18.4c0-3.08-2.5-5.57-5.58-5.57h-5.58v23.96h-8v-31.95h13.58c3.74 0 7.13 1.5 9.58 3.95a13.54 13.54 0 0 1 9.58-3.95"/><path id="ficjeS" d="M826.89 1326.24l14.55 6.62 3.31-7.27a7.99 7.99 0 0 1-3.96-10.58 7.99 7.99 0 1 0-10.59 3.96l14.55 6.62 3.32-7.27a16 16 0 0 0-29.1-13.24 15.97 15.97 0 0 0 7.92 21.16"/><path id="ficjeT" d="M897.17 1381.11v-15.97h-8v31.95a15.98 15.98 0 1 0 16-15.98zm0 0a8 8 0 0 0 8 8 8 8 0 1 1-8 7.98z"/><path id="ficjeU" d="M799.83 1438.66a15.98 15.98 0 1 1-.01-31.96 15.98 15.98 0 0 1 0 31.96m0-7.99a8 8 0 1 0 .01-15.98 8 8 0 0 0 0 15.98"/><path id="ficjeV" d="M731.7 1305.16a7.99 7.99 0 0 1 3.4-9.11l6.53-4.1a7.98 7.98 0 0 0 .42 11.28l10.75 10.01-15.62 9.78zm9.93-13.2l-4.25-6.77-6.53 4.09a15.98 15.98 0 0 0-6.8 18.23l10.98 35.71 7.01-4.39-2.43-7.9 19.24-12.05 6.06 5.64 7.01-4.4z"/><path id="ficjeW" d="M817.48 1626.34a14.76 14.76 0 1 0 14.76 14.75v-29.5c0 8.15-6.6 14.75-14.76 14.75"/><path id="ficjeX" d="M681.15 1735.24l6.29-4.94-29.66-37.67-6.29 4.94z"/><path id="ficjeY" d="M907.7 1626.77c7.5 0 13.58 6.08 13.58 13.57v18.39h-8v-18.39a5.58 5.58 0 0 0-11.16 0v18.39h-8v-18.39c0-3.08-2.5-5.58-5.57-5.58h-5.59v23.97h-8v-31.96h13.59c3.73 0 7.12 1.51 9.58 3.96a13.54 13.54 0 0 1 9.58-3.96"/><path id="ficjeZ" d="M724.68 1685.04l14.55 6.62 3.32-7.28a7.99 7.99 0 0 1-3.97-10.58 7.99 7.99 0 1 0-10.59 3.97l14.56 6.61 3.3-7.27a16 16 0 0 0-29.1-13.24 15.97 15.97 0 0 0 7.93 21.17"/><path id="ficjfa" d="M898.13 1705.47v-15.98h-8v31.95a15.98 15.98 0 1 0 16-15.97zm0 0a8 8 0 0 0 8 7.99 8 8 0 1 1-8 7.98z"/><path id="ficjfb" d="M823.76 1737.9a15.98 15.98 0 1 1 0-31.96 15.98 15.98 0 0 1 0 31.96m0-7.99a8 8 0 1 0 .01-15.98 8 8 0 0 0 0 15.98"/><clipPath id="ficjb"><use xlink:href="#ficja"/></clipPath></defs><g><g transform="translate(0 -780)"><g><use fill="#0a5bf0" xlink:href="#ficja"/></g><g clip-path="url(#ficjb)" opacity=".05"><g opacity=".05"><g opacity=".05"><g opacity=".05"><use fill="#fff" xlink:href="#ficjc"/></g><g opacity=".05"><use fill="#fff" xlink:href="#ficjd"/></g><g opacity=".05"><use fill="#fff" xlink:href="#ficje"/></g><g opacity=".05"><use fill="#fff" xlink:href="#ficjf"/></g><g opacity=".05"><use fill="#fff" xlink:href="#ficjg"/></g><g opacity=".05"><use fill="#fff" xlink:href="#ficjh"/></g><g opacity=".05"><use fill="#fff" xlink:href="#ficji"/></g><g opacity=".05"><use fill="#fff" xlink:href="#ficjj"/></g><g opacity=".05"><use fill="#fff" xlink:href="#ficjk"/></g><g opacity=".05"><use fill="#fff" xlink:href="#ficjl"/></g><g opacity=".05"><use fill="#fff" xlink:href="#ficjm"/></g><g opacity=".05"><use fill="#fff" xlink:href="#ficjn"/></g><g opacity=".05"><use fill="#fff" xlink:href="#ficjo"/></g><g opacity=".05"><use fill="#fff" xlink:href="#ficjp"/></g><g opacity=".05"><use fill="#fff" xlink:href="#ficjq"/></g><g opacity=".05"><use fill="#fff" xlink:href="#ficjr"/></g><g opacity=".05"><use fill="#fff" xlink:href="#ficjs"/></g><g opacity=".05"><use fill="#fff" xlink:href="#ficjt"/></g><g opacity=".05"><use fill="#fff" xlink:href="#ficju"/></g><g opacity=".05"><use fill="#fff" xlink:href="#ficjv"/></g><g opacity=".05"><use fill="#fff" xlink:href="#ficjw"/></g><g opacity=".05"><use fill="#fff" xlink:href="#ficjx"/></g><g opacity=".05"><use fill="#fff" xlink:href="#ficjy"/></g><g opacity=".05"><use fill="#fff" xlink:href="#ficjz"/></g><g opacity=".05"><use fill="#fff" xlink:href="#ficjA"/></g><g opacity=".05"><use fill="#fff" xlink:href="#ficjB"/></g><g opacity=".05"><use fill="#fff" xlink:href="#ficjC"/></g><g opacity=".05"><use fill="#fff" xlink:href="#ficjD"/></g><g opacity=".05"><use fill="#fff" xlink:href="#ficjE"/></g><g opacity=".05"><use fill="#fff" xlink:href="#ficjF"/></g><g opacity=".05"><use fill="#fff" xlink:href="#ficjG"/></g><g opacity=".05"><use fill="#fff" xlink:href="#ficjH"/></g><g opacity=".05"><use fill="#fff" xlink:href="#ficjI"/></g><g opacity=".05"><use fill="#fff" xlink:href="#ficjJ"/></g><g opacity=".05"><use fill="#fff" xlink:href="#ficjK"/></g><g opacity=".05"><use fill="#fff" xlink:href="#ficjL"/></g><g opacity=".05"><use fill="#fff" xlink:href="#ficjM"/></g><g opacity=".05"><use fill="#fff" xlink:href="#ficjN"/></g><g opacity=".05"><use fill="#fff" xlink:href="#ficjO"/></g></g></g><g opacity=".05"><g opacity=".05"><g opacity=".05"><use fill="#fff" xlink:href="#ficjP"/></g><g opacity=".05"><use fill="#fff" xlink:href="#ficjQ"/></g><g opacity=".05"><use fill="#fff" xlink:href="#ficjR"/></g><g opacity=".05"><use fill="#fff" xlink:href="#ficjS"/></g><g opacity=".05"><use fill="#fff" xlink:href="#ficjT"/></g><g opacity=".05"><use fill="#fff" xlink:href="#ficjU"/></g><g opacity=".05"><use fill="#fff" xlink:href="#ficjV"/></g><g opacity=".05"><use fill="#fff" xlink:href="#ficjW"/></g><g opacity=".05"><use fill="#fff" xlink:href="#ficjX"/></g><g opacity=".05"><use fill="#fff" xlink:href="#ficjY"/></g><g opacity=".05"><use fill="#fff" xlink:href="#ficjZ"/></g><g opacity=".05"><use fill="#fff" xlink:href="#ficjaa"/></g><g opacity=".05"><use fill="#fff" xlink:href="#ficjab"/></g><g opacity=".05"><use fill="#fff" xlink:href="#ficjac"/></g><g opacity=".05"><use fill="#fff" xlink:href="#ficjad"/></g><g opacity=".05"><use fill="#fff" xlink:href="#ficjae"/></g><g opacity=".05"><use fill="#fff" xlink:href="#ficjaf"/></g><g opacity=".05"><use fill="#fff" xlink:href="#ficjag"/></g><g opacity=".05"><use fill="#fff" xlink:href="#ficjah"/></g><g opacity=".05"><use fill="#fff" xlink:href="#ficjai"/></g><g opacity=".05"><use fill="#fff" xlink:href="#ficjaj"/></g><g opacity=".05"><use fill="#fff" xlink:href="#ficjak"/></g><g opacity=".05"><use fill="#fff" xlink:href="#ficjal"/></g><g opacity=".05"><use fill="#fff" xlink:href="#ficjam"/></g><g opacity=".05"><use fill="#fff" xlink:href="#ficjan"/></g><g opacity=".05"><use fill="#fff" xlink:href="#ficjao"/></g><g opacity=".05"><use fill="#fff" xlink:href="#ficjap"/></g><g opacity=".05"><use fill="#fff" xlink:href="#ficjaq"/></g><g opacity=".05"><use fill="#fff" xlink:href="#ficjar"/></g><g opacity=".05"><use fill="#fff" xlink:href="#ficjas"/></g><g opacity=".05"><use fill="#fff" xlink:href="#ficjat"/></g><g opacity=".05"><use fill="#fff" xlink:href="#ficjau"/></g><g opacity=".05"><use fill="#fff" xlink:href="#ficjav"/></g><g opacity=".05"><use fill="#fff" xlink:href="#ficjaw"/></g><g opacity=".05"><use fill="#fff" xlink:href="#ficjax"/></g><g opacity=".05"><use fill="#fff" xlink:href="#ficjay"/></g><g opacity=".05"><use fill="#fff" xlink:href="#ficjaz"/></g><g opacity=".05"><use fill="#fff" xlink:href="#ficjaA"/></g><g opacity=".05"><use fill="#fff" xlink:href="#ficjaB"/></g></g></g><g opacity=".05"><g opacity=".05"><g opacity=".05"><use fill="#fff" xlink:href="#ficjaC"/></g><g opacity=".05"><use fill="#fff" xlink:href="#ficjaD"/></g><g opacity=".05"><use fill="#fff" xlink:href="#ficjaE"/></g><g opacity=".05"><use fill="#fff" xlink:href="#ficjaF"/></g><g opacity=".05"><use fill="#fff" xlink:href="#ficjaG"/></g><g opacity=".05"><use fill="#fff" xlink:href="#ficjaH"/></g><g opacity=".05"><use fill="#fff" xlink:href="#ficjaI"/></g><g opacity=".05"><use fill="#fff" xlink:href="#ficjaJ"/></g><g opacity=".05"><use fill="#fff" xlink:href="#ficjaK"/></g><g opacity=".05"><use fill="#fff" xlink:href="#ficjaL"/></g><g opacity=".05"><use fill="#fff" xlink:href="#ficjaM"/></g><g opacity=".05"><use fill="#fff" xlink:href="#ficjaN"/></g><g opacity=".05"><use fill="#fff" xlink:href="#ficjaO"/></g><g opacity=".05"><use fill="#fff" xlink:href="#ficjaP"/></g><g opacity=".05"><use fill="#fff" xlink:href="#ficjaQ"/></g><g opacity=".05"><use fill="#fff" xlink:href="#ficjaR"/></g><g opacity=".05"><use fill="#fff" xlink:href="#ficjaS"/></g><g opacity=".05"><use fill="#fff" xlink:href="#ficjaT"/></g><g opacity=".05"><use fill="#fff" xlink:href="#ficjaU"/></g><g opacity=".05"><use fill="#fff" xlink:href="#ficjaV"/></g><g opacity=".05"><use fill="#fff" xlink:href="#ficjaW"/></g><g opacity=".05"><use fill="#fff" xlink:href="#ficjaX"/></g><g opacity=".05"><use fill="#fff" xlink:href="#ficjaY"/></g><g opacity=".05"><use fill="#fff" xlink:href="#ficjaZ"/></g><g opacity=".05"><use fill="#fff" xlink:href="#ficjba"/></g><g opacity=".05"><use fill="#fff" xlink:href="#ficjbb"/></g><g opacity=".05"><use fill="#fff" xlink:href="#ficjbc"/></g><g opacity=".05"><use fill="#fff" xlink:href="#ficjbd"/></g><g opacity=".05"><use fill="#fff" xlink:href="#ficjbe"/></g><g opacity=".05"><use fill="#fff" xlink:href="#ficjbf"/></g><g opacity=".05"><use fill="#fff" xlink:href="#ficjbg"/></g><g opacity=".05"><use fill="#fff" xlink:href="#ficjbh"/></g><g opacity=".05"><use fill="#fff" xlink:href="#ficjbi"/></g><g opacity=".05"><use fill="#fff" xlink:href="#ficjbj"/></g><g opacity=".05"><use fill="#fff" xlink:href="#ficjbk"/></g><g opacity=".05"><use fill="#fff" xlink:href="#ficjbl"/></g><g opacity=".05"><use fill="#fff" xlink:href="#ficjbm"/></g><g opacity=".05"><use fill="#fff" xlink:href="#ficjbn"/></g><g opacity=".05"><use fill="#fff" xlink:href="#ficjbo"/></g></g></g><g opacity=".05"><g opacity=".05"><g opacity=".05"><use fill="#fff" xlink:href="#ficjbp"/></g><g opacity=".05"><use fill="#fff" xlink:href="#ficjbq"/></g><g opacity=".05"><use fill="#fff" xlink:href="#ficjbr"/></g><g opacity=".05"><use fill="#fff" xlink:href="#ficjbs"/></g><g opacity=".05"><use fill="#fff" xlink:href="#ficjbt"/></g><g opacity=".05"><use fill="#fff" xlink:href="#ficjbu"/></g><g opacity=".05"><use fill="#fff" xlink:href="#ficjbv"/></g><g opacity=".05"><use fill="#fff" xlink:href="#ficjbw"/></g><g opacity=".05"><use fill="#fff" xlink:href="#ficjbx"/></g><g opacity=".05"><use fill="#fff" xlink:href="#ficjby"/></g><g opacity=".05"><use fill="#fff" xlink:href="#ficjbz"/></g><g opacity=".05"><use fill="#fff" xlink:href="#ficjbA"/></g><g opacity=".05"><use fill="#fff" xlink:href="#ficjbB"/></g><g opacity=".05"><use fill="#fff" xlink:href="#ficjbC"/></g><g opacity=".05"><use fill="#fff" xlink:href="#ficjbD"/></g><g opacity=".05"><use fill="#fff" xlink:href="#ficjbE"/></g><g opacity=".05"><use fill="#fff" xlink:href="#ficjbF"/></g><g opacity=".05"><use fill="#fff" xlink:href="#ficjbG"/></g><g opacity=".05"><use fill="#fff" xlink:href="#ficjbH"/></g><g opacity=".05"><use fill="#fff" xlink:href="#ficjbI"/></g><g opacity=".05"><use fill="#fff" xlink:href="#ficjbJ"/></g><g opacity=".05"><use fill="#fff" xlink:href="#ficjbK"/></g><g opacity=".05"><use fill="#fff" xlink:href="#ficjbL"/></g><g opacity=".05"><use fill="#fff" xlink:href="#ficjbM"/></g><g opacity=".05"><use fill="#fff" xlink:href="#ficjbN"/></g><g opacity=".05"><use fill="#fff" xlink:href="#ficjbO"/></g><g opacity=".05"><use fill="#fff" xlink:href="#ficjbP"/></g><g opacity=".05"><use fill="#fff" xlink:href="#ficjbQ"/></g><g opacity=".05"><use fill="#fff" xlink:href="#ficjbR"/></g><g opacity=".05"><use fill="#fff" xlink:href="#ficjbS"/></g><g opacity=".05"><use fill="#fff" xlink:href="#ficjbT"/></g><g opacity=".05"><use fill="#fff" xlink:href="#ficjbU"/></g><g opacity=".05"><use fill="#fff" xlink:href="#ficjbV"/></g><g opacity=".05"><use fill="#fff" xlink:href="#ficjbW"/></g><g opacity=".05"><use fill="#fff" xlink:href="#ficjbX"/></g><g opacity=".05"><use fill="#fff" xlink:href="#ficjbY"/></g><g opacity=".05"><use fill="#fff" xlink:href="#ficjbZ"/></g><g opacity=".05"><use fill="#fff" xlink:href="#ficjca"/></g><g opacity=".05"><use fill="#fff" xlink:href="#ficjcb"/></g></g></g><g opacity=".05"><g opacity=".05"><g opacity=".05"><use fill="#fff" xlink:href="#ficjcc"/></g><g opacity=".05"><use fill="#fff" xlink:href="#ficjcd"/></g><g opacity=".05"><use fill="#fff" xlink:href="#ficjce"/></g><g opacity=".05"><use fill="#fff" xlink:href="#ficjcf"/></g><g opacity=".05"><use fill="#fff" xlink:href="#ficjcg"/></g><g opacity=".05"><use fill="#fff" xlink:href="#ficjch"/></g><g opacity=".05"><use fill="#fff" xlink:href="#ficjci"/></g><g opacity=".05"><use fill="#fff" xlink:href="#ficjcj"/></g><g opacity=".05"><use fill="#fff" xlink:href="#ficjck"/></g><g opacity=".05"><use fill="#fff" xlink:href="#ficjcl"/></g><g opacity=".05"><use fill="#fff" xlink:href="#ficjcm"/></g><g opacity=".05"><use fill="#fff" xlink:href="#ficjcn"/></g><g opacity=".05"><use fill="#fff" xlink:href="#ficjco"/></g><g opacity=".05"><use fill="#fff" xlink:href="#ficjcp"/></g><g opacity=".05"><use fill="#fff" xlink:href="#ficjcq"/></g><g opacity=".05"><use fill="#fff" xlink:href="#ficjcr"/></g><g opacity=".05"><use fill="#fff" xlink:href="#ficjcs"/></g><g opacity=".05"><use fill="#fff" xlink:href="#ficjct"/></g><g opacity=".05"><use fill="#fff" xlink:href="#ficjcu"/></g><g opacity=".05"><use fill="#fff" xlink:href="#ficjcv"/></g><g opacity=".05"><use fill="#fff" xlink:href="#ficjcw"/></g><g opacity=".05"><use fill="#fff" xlink:href="#ficjcx"/></g><g opacity=".05"><use fill="#fff" xlink:href="#ficjcy"/></g><g opacity=".05"><use fill="#fff" xlink:href="#ficjcz"/></g><g opacity=".05"><use fill="#fff" xlink:href="#ficjcA"/></g><g opacity=".05"><use fill="#fff" xlink:href="#ficjcB"/></g><g opacity=".05"><use fill="#fff" xlink:href="#ficjcC"/></g><g opacity=".05"><use fill="#fff" xlink:href="#ficjcD"/></g><g opacity=".05"><use fill="#fff" xlink:href="#ficjcE"/></g><g opacity=".05"><use fill="#fff" xlink:href="#ficjcF"/></g><g opacity=".05"><use fill="#fff" xlink:href="#ficjcG"/></g><g opacity=".05"><use fill="#fff" xlink:href="#ficjcH"/></g><g opacity=".05"><use fill="#fff" xlink:href="#ficjcI"/></g><g opacity=".05"><use fill="#fff" xlink:href="#ficjcJ"/></g><g opacity=".05"><use fill="#fff" xlink:href="#ficjcK"/></g><g opacity=".05"><use fill="#fff" xlink:href="#ficjcL"/></g><g opacity=".05"><use fill="#fff" xlink:href="#ficjcM"/></g><g opacity=".05"><use fill="#fff" xlink:href="#ficjcN"/></g><g opacity=".05"><use fill="#fff" xlink:href="#ficjcO"/></g></g></g><g opacity=".05"><g opacity=".05"><g opacity=".05"><use fill="#fff" xlink:href="#ficjcP"/></g><g opacity=".05"><use fill="#fff" xlink:href="#ficjcQ"/></g><g opacity=".05"><use fill="#fff" xlink:href="#ficjcR"/></g><g opacity=".05"><use fill="#fff" xlink:href="#ficjcS"/></g><g opacity=".05"><use fill="#fff" xlink:href="#ficjcT"/></g><g opacity=".05"><use fill="#fff" xlink:href="#ficjcU"/></g><g opacity=".05"><use fill="#fff" xlink:href="#ficjcV"/></g><g opacity=".05"><use fill="#fff" xlink:href="#ficjcW"/></g><g opacity=".05"><use fill="#fff" xlink:href="#ficjcX"/></g><g opacity=".05"><use fill="#fff" xlink:href="#ficjcY"/></g><g opacity=".05"><use fill="#fff" xlink:href="#ficjcZ"/></g><g opacity=".05"><use fill="#fff" xlink:href="#ficjda"/></g><g opacity=".05"><use fill="#fff" xlink:href="#ficjdb"/></g><g opacity=".05"><use fill="#fff" xlink:href="#ficjdc"/></g><g opacity=".05"><use fill="#fff" xlink:href="#ficjdd"/></g><g opacity=".05"><use fill="#fff" xlink:href="#ficjde"/></g><g opacity=".05"><use fill="#fff" xlink:href="#ficjdf"/></g><g opacity=".05"><use fill="#fff" xlink:href="#ficjdg"/></g><g opacity=".05"><use fill="#fff" xlink:href="#ficjdh"/></g><g opacity=".05"><use fill="#fff" xlink:href="#ficjdi"/></g><g opacity=".05"><use fill="#fff" xlink:href="#ficjdj"/></g><g opacity=".05"><use fill="#fff" xlink:href="#ficjdk"/></g><g opacity=".05"><use fill="#fff" xlink:href="#ficjdl"/></g><g opacity=".05"><use fill="#fff" xlink:href="#ficjdm"/></g><g opacity=".05"><use fill="#fff" xlink:href="#ficjdn"/></g><g opacity=".05"><use fill="#fff" xlink:href="#ficjdo"/></g><g opacity=".05"><use fill="#fff" xlink:href="#ficjdp"/></g><g opacity=".05"><use fill="#fff" xlink:href="#ficjdq"/></g><g opacity=".05"><use fill="#fff" xlink:href="#ficjdr"/></g><g opacity=".05"><use fill="#fff" xlink:href="#ficjds"/></g><g opacity=".05"><use fill="#fff" xlink:href="#ficjdt"/></g><g opacity=".05"><use fill="#fff" xlink:href="#ficjdu"/></g><g opacity=".05"><use fill="#fff" xlink:href="#ficjdv"/></g><g opacity=".05"><use fill="#fff" xlink:href="#ficjdw"/></g><g opacity=".05"><use fill="#fff" xlink:href="#ficjdx"/></g><g opacity=".05"><use fill="#fff" xlink:href="#ficjdy"/></g><g opacity=".05"><use fill="#fff" xlink:href="#ficjdz"/></g><g opacity=".05"><use fill="#fff" xlink:href="#ficjdA"/></g><g opacity=".05"><use fill="#fff" xlink:href="#ficjdB"/></g></g></g><g opacity=".05"><g opacity=".05"><g opacity=".05"><use fill="#fff" xlink:href="#ficjdC"/></g><g opacity=".05"><use fill="#fff" xlink:href="#ficjdD"/></g><g opacity=".05"><use fill="#fff" xlink:href="#ficjdE"/></g><g opacity=".05"><use fill="#fff" xlink:href="#ficjdF"/></g><g opacity=".05"><use fill="#fff" xlink:href="#ficjdG"/></g><g opacity=".05"><use fill="#fff" xlink:href="#ficjdH"/></g><g opacity=".05"><use fill="#fff" xlink:href="#ficjdI"/></g><g opacity=".05"><use fill="#fff" xlink:href="#ficjdJ"/></g><g opacity=".05"><use fill="#fff" xlink:href="#ficjdK"/></g><g opacity=".05"><use fill="#fff" xlink:href="#ficjdL"/></g><g opacity=".05"><use fill="#fff" xlink:href="#ficjdM"/></g><g opacity=".05"><use fill="#fff" xlink:href="#ficjdN"/></g><g opacity=".05"><use fill="#fff" xlink:href="#ficjdO"/></g><g opacity=".05"><use fill="#fff" xlink:href="#ficjdP"/></g><g opacity=".05"><use fill="#fff" xlink:href="#ficjdQ"/></g><g opacity=".05"><use fill="#fff" xlink:href="#ficjdR"/></g><g opacity=".05"><use fill="#fff" xlink:href="#ficjdS"/></g><g opacity=".05"><use fill="#fff" xlink:href="#ficjdT"/></g><g opacity=".05"><use fill="#fff" xlink:href="#ficjdU"/></g><g opacity=".05"><use fill="#fff" xlink:href="#ficjdV"/></g><g opacity=".05"><use fill="#fff" xlink:href="#ficjdW"/></g><g opacity=".05"><use fill="#fff" xlink:href="#ficjdX"/></g><g opacity=".05"><use fill="#fff" xlink:href="#ficjdY"/></g><g opacity=".05"><use fill="#fff" xlink:href="#ficjdZ"/></g><g opacity=".05"><use fill="#fff" xlink:href="#ficjea"/></g><g opacity=".05"><use fill="#fff" xlink:href="#ficjeb"/></g><g opacity=".05"><use fill="#fff" xlink:href="#ficjec"/></g><g opacity=".05"><use fill="#fff" xlink:href="#ficjed"/></g><g opacity=".05"><use fill="#fff" xlink:href="#ficjee"/></g><g opacity=".05"><use fill="#fff" xlink:href="#ficjef"/></g><g opacity=".05"><use fill="#fff" xlink:href="#ficjeg"/></g><g opacity=".05"><use fill="#fff" xlink:href="#ficjeh"/></g><g opacity=".05"><use fill="#fff" xlink:href="#ficjei"/></g><g opacity=".05"><use fill="#fff" xlink:href="#ficjej"/></g><g opacity=".05"><use fill="#fff" xlink:href="#ficjek"/></g><g opacity=".05"><use fill="#fff" xlink:href="#ficjel"/></g><g opacity=".05"><use fill="#fff" xlink:href="#ficjem"/></g><g opacity=".05"><use fill="#fff" xlink:href="#ficjen"/></g><g opacity=".05"><use fill="#fff" xlink:href="#ficjeo"/></g></g></g><g opacity=".05"><g opacity=".05"><g opacity=".05"><use fill="#fff" xlink:href="#ficjep"/></g><g opacity=".05"><use fill="#fff" xlink:href="#ficjeq"/></g><g opacity=".05"><use fill="#fff" xlink:href="#ficjer"/></g><g opacity=".05"><use fill="#fff" xlink:href="#ficjes"/></g><g opacity=".05"><use fill="#fff" xlink:href="#ficjet"/></g><g opacity=".05"><use fill="#fff" xlink:href="#ficjeu"/></g><g opacity=".05"><use fill="#fff" xlink:href="#ficjev"/></g><g opacity=".05"><use fill="#fff" xlink:href="#ficjew"/></g><g opacity=".05"><use fill="#fff" xlink:href="#ficjex"/></g><g opacity=".05"><use fill="#fff" xlink:href="#ficjey"/></g><g opacity=".05"><use fill="#fff" xlink:href="#ficjez"/></g><g opacity=".05"><use fill="#fff" xlink:href="#ficjeA"/></g><g opacity=".05"><use fill="#fff" xlink:href="#ficjeB"/></g><g opacity=".05"><use fill="#fff" xlink:href="#ficjeC"/></g><g opacity=".05"><use fill="#fff" xlink:href="#ficjeD"/></g><g opacity=".05"><use fill="#fff" xlink:href="#ficjeE"/></g><g opacity=".05"><use fill="#fff" xlink:href="#ficjeF"/></g><g opacity=".05"><use fill="#fff" xlink:href="#ficjeG"/></g><g opacity=".05"><use fill="#fff" xlink:href="#ficjeH"/></g><g opacity=".05"><use fill="#fff" xlink:href="#ficjeI"/></g><g opacity=".05"><use fill="#fff" xlink:href="#ficjeJ"/></g><g opacity=".05"><use fill="#fff" xlink:href="#ficjeK"/></g><g opacity=".05"><use fill="#fff" xlink:href="#ficjeL"/></g><g opacity=".05"><use fill="#fff" xlink:href="#ficjeM"/></g><g opacity=".05"><use fill="#fff" xlink:href="#ficjeN"/></g><g opacity=".05"><use fill="#fff" xlink:href="#ficjeO"/></g><g opacity=".05"><use fill="#fff" xlink:href="#ficjeP"/></g><g opacity=".05"><use fill="#fff" xlink:href="#ficjeQ"/></g><g opacity=".05"><use fill="#fff" xlink:href="#ficjeR"/></g><g opacity=".05"><use fill="#fff" xlink:href="#ficjeS"/></g><g opacity=".05"><use fill="#fff" xlink:href="#ficjeT"/></g><g opacity=".05"><use fill="#fff" xlink:href="#ficjeU"/></g><g opacity=".05"><use fill="#fff" xlink:href="#ficjeV"/></g><g opacity=".05"><use fill="#fff" xlink:href="#ficjeW"/></g><g opacity=".05"><use fill="#fff" xlink:href="#ficjeX"/></g><g opacity=".05"><use fill="#fff" xlink:href="#ficjeY"/></g><g opacity=".05"><use fill="#fff" xlink:href="#ficjeZ"/></g><g opacity=".05"><use fill="#fff" xlink:href="#ficjfa"/></g><g opacity=".05"><use fill="#fff" xlink:href="#ficjfb"/></g></g></g></g></g></g></svg>