<svg xmlns="http://www.w3.org/2000/svg" xmlns:xlink="http://www.w3.org/1999/xlink" width="120" height="26" viewBox="0 0 120 26"><defs><path id="c4nea" d="M282.65 3852.65h4.2v-25.58h-4.2z"/><path id="c4neb" d="M367.5 3835.6a7.19 7.19 0 0 1 7.13 7.23v9.82h-4.2v-9.82a2.95 2.95 0 0 0-2.93-2.97 2.95 2.95 0 0 0-2.94 2.97v9.82h-4.2v-9.82a2.95 2.95 0 0 0-2.93-2.97h-2.93v12.79h-4.2v-17.05h7.13c1.97 0 3.75.8 5.03 2.1a7.05 7.05 0 0 1 5.04-2.1"/><path id="c4nec" d="M299.12 3852.65h8.4v-4.27c-2.32 0-4.2-1.9-4.2-4.26a4.23 4.23 0 0 0-4.2-4.26c-2.31 0-4.2 1.9-4.2 4.26a4.23 4.23 0 0 0 4.2 4.26h8.4v-4.26c0-4.7-3.76-8.52-8.4-8.52a8.46 8.46 0 0 0-8.4 8.52c0 4.7 3.77 8.53 8.4 8.53"/><path id="c4ned" d="M315.33 3835.6a4.23 4.23 0 0 0 4.2 4.26c2.32 0 4.2 1.9 4.2 4.26a4.23 4.23 0 0 1-4.2 4.26c-2.32 0-4.2-1.9-4.2-4.26v-8.52zm0 0v-8.53h-4.2v17.05c0 4.7 3.77 8.53 8.4 8.53 4.64 0 8.4-3.82 8.4-8.53 0-4.7-3.76-8.52-8.4-8.52z"/><path id="c4nee" d="M338.75 3848.38c-2.32 0-4.2-1.9-4.2-4.26a4.23 4.23 0 0 1 4.2-4.26c2.32 0 4.2 1.9 4.2 4.26a4.23 4.23 0 0 1-4.2 4.26zm0 4.27a8.46 8.46 0 0 1-8.4-8.53c0-4.7 3.76-8.52 8.4-8.52 4.64 0 8.4 3.81 8.4 8.52 0 4.7-3.76 8.53-8.4 8.53z"/><path id="c4nef" d="M272.3 3831.33v-4.26h-4.04a8.42 8.42 0 0 0-8.11 6.32l-5.09 19.26h4.35l1.13-4.27h11.92l1.12 4.27h4.35l-5.63-21.32zm-8.1 3.16a4.21 4.21 0 0 1 4.06-3.16h4.04a4.27 4.27 0 0 0-2.95 5.22l1.99 7.57h-9.68z"/></defs><g><g transform="translate(-255 -3827)"><g><g><use fill="#2150f4" xlink:href="#c4nea"/></g><g><use fill="#2150f4" xlink:href="#c4neb"/></g><g><use fill="#2150f4" xlink:href="#c4nec"/></g><g><use fill="#2150f4" xlink:href="#c4ned"/></g><g><use fill="#2150f4" xlink:href="#c4nee"/></g><g><use fill="#2150f4" xlink:href="#c4nef"/></g></g></g></g></svg>