<svg xmlns="http://www.w3.org/2000/svg" xmlns:xlink="http://www.w3.org/1999/xlink" width="147" height="31" viewBox="0 0 147 31"><defs><path id="y3s4a" d="M288.88 75.58h5.14v-30.5h-5.14z"/><path id="y3s4b" d="M392.8 55.25a8.68 8.68 0 0 1 8.74 8.63v11.7h-5.14v-11.7c0-1.96-1.61-3.55-3.6-3.55a3.57 3.57 0 0 0-3.58 3.55v11.7h-5.15v-11.7c0-1.96-1.6-3.55-3.59-3.55h-3.59v15.25h-5.14V55.25h8.73c2.4 0 4.59.96 6.16 2.51a8.76 8.76 0 0 1 6.17-2.51"/><path id="y3s4c" d="M309.05 75.58h10.29V70.5a5.11 5.11 0 0 1-5.15-5.09c0-2.8-2.3-5.08-5.14-5.08a5.11 5.11 0 0 0-5.14 5.08c0 2.81 2.3 5.09 5.14 5.09h10.29V65.4c0-5.61-4.6-10.16-10.29-10.16a10.23 10.23 0 0 0-10.28 10.16c0 5.62 4.6 10.17 10.28 10.17"/><path id="y3s4d" d="M328.9 55.25c0 2.8 2.31 5.08 5.15 5.08a5.11 5.11 0 0 1 5.14 5.08c0 2.8-2.3 5.08-5.14 5.08a5.11 5.11 0 0 1-5.14-5.08V55.25zm0 0V45.08h-5.13v20.33c0 5.62 4.6 10.17 10.28 10.17s10.29-4.55 10.29-10.17c0-5.61-4.6-10.16-10.29-10.16z"/><path id="y3s4e" d="M357.6 70.5a5.11 5.11 0 0 1-5.15-5.09c0-2.8 2.3-5.08 5.14-5.08a5.11 5.11 0 0 1 5.15 5.08c0 2.81-2.3 5.09-5.15 5.09zm0 5.08A10.23 10.23 0 0 1 347.3 65.4c0-5.61 4.6-10.16 10.28-10.16s10.29 4.55 10.29 10.16c0 5.62-4.6 10.17-10.29 10.17z"/><path id="y3s4f" d="M276.2 50.17v-5.09h-4.96c-4.76 0-8.76 3.2-9.94 7.54l-6.22 22.96h5.32l1.38-5.09h14.6l1.38 5.09h5.33l-6.9-25.41zm-9.93 3.76a5.14 5.14 0 0 1 4.97-3.76h4.96a5.08 5.08 0 0 0-3.62 6.22l2.44 9.03h-11.86z"/></defs><g><g transform="translate(-255 -45)"><g><g><use fill="#2150f4" xlink:href="#y3s4a"/></g><g><use fill="#2150f4" xlink:href="#y3s4b"/></g><g><use fill="#2150f4" xlink:href="#y3s4c"/></g><g><use fill="#2150f4" xlink:href="#y3s4d"/></g><g><use fill="#2150f4" xlink:href="#y3s4e"/></g><g><use fill="#2150f4" xlink:href="#y3s4f"/></g></g></g></g></svg>