<svg xmlns="http://www.w3.org/2000/svg" xmlns:xlink="http://www.w3.org/1999/xlink" width="28" height="22" viewBox="0 0 28 22"><defs><path id="9zv5a" d="M949.3 3464c-.2-.2-.3-.5-.3-.7 0-.2.1-.5.3-.7l1.4-1.4c.4-.4 1-.4 1.4 0l.1.1 5.5 5.9c.2.2.5.2.7 0l13.4-13.9h.1c.4-.4 1-.4 1.4 0l1.4 1.4c.4.4.4 1 0 1.4l-16 16.6c-.2.2-.4.3-.7.3a.9.9 0 0 1-.7-.3l-7.8-8.4z"/></defs><g><g transform="translate(-948 -3452)"><use fill="#fff" xlink:href="#9zv5a"/><use fill="#fff" fill-opacity="0" stroke="#fff" stroke-miterlimit="50" stroke-width="2" xlink:href="#9zv5a"/></g></g></svg>