<svg xmlns="http://www.w3.org/2000/svg" xmlns:xlink="http://www.w3.org/1999/xlink" width="24" height="25" viewBox="0 0 24 25"><defs><path id="c3kza" d="M1329.67 3467v5.67h-17.34V3467H1309v7.33c0 .92.74 1.67 1.67 1.67h20.66c.92 0 1.67-.74 1.67-1.67V3467z"/><path id="c3kzb" d="M1321.19 3466.77l-4.88-5.96s-.74-.7.06-.7h2.75v-1.22-7.47s-.1-.42.52-.42h3.87c.46 0 .45.36.45.36v8.56h2.53c.98 0 .24.75.24.75s-4.15 5.57-4.72 6.15c-.42.43-.82-.05-.82-.05z"/></defs><g><g transform="translate(-1309 -3451)"><g><use fill="#fff" xlink:href="#c3kza"/></g><g><use fill="#fff" xlink:href="#c3kzb"/></g></g></g></svg>