<svg xmlns="http://www.w3.org/2000/svg" xmlns:xlink="http://www.w3.org/1999/xlink" width="30" height="24" viewBox="0 0 30 24"><defs><path id="pjyva" d="M1393.2 1827c.69 0 1.29-.24 1.8-.72l-8.75-9.28-.61.46c-.66.52-1.19.91-1.6 1.2-.4.29-.95.58-1.63.88-.67.3-1.3.44-1.9.44h-.03c-.58 0-1.22-.14-1.9-.44a9.6 9.6 0 0 1-1.62-.88 40.71 40.71 0 0 1-2.2-1.66l-8.76 9.28c.51.48 1.11.72 1.8.72h25.4z"/><path id="pjyvb" d="M1366.8 1812.46a9.34 9.34 0 0 1-1.8-1.46v13l8-7.53c-1.6-1.05-3.66-2.39-6.2-4z"/><path id="pjyvc" d="M1393.44 1812.46a461.1 461.1 0 0 0-5.44 4.01l7 7.53v-13a8.86 8.86 0 0 1-1.56 1.46z"/><path id="pjyvd" d="M1392.32 1803h-24.64a2.4 2.4 0 0 0-1.99.87c-.46.58-.69 1.3-.69 2.18 0 .7.3 1.46.92 2.28a8.3 8.3 0 0 0 1.96 1.94 721.74 721.74 0 0 0 6.13 4.25l1.69 1.19.25.17a229.3 229.3 0 0 1 1.36.97c.24.17.53.35.87.55.34.2.67.35.97.45.3.1.58.15.83.15h.04c.25 0 .53-.05.83-.15.3-.1.63-.25.97-.45a17.84 17.84 0 0 0 1.77-1.18 112.38 112.38 0 0 1 2.4-1.7l6.15-4.25a7.96 7.96 0 0 0 2.04-2.06c.55-.8.82-1.65.82-2.53 0-.74-.27-1.37-.8-1.9a2.59 2.59 0 0 0-1.88-.78z"/></defs><g><g transform="translate(-1365 -1803)"><g><use fill="#fff" xlink:href="#pjyva"/></g><g><use fill="#fff" xlink:href="#pjyvb"/></g><g><use fill="#fff" xlink:href="#pjyvc"/></g><g><use fill="#fff" xlink:href="#pjyvd"/></g></g></g></svg>