<svg xmlns="http://www.w3.org/2000/svg" xmlns:xlink="http://www.w3.org/1999/xlink" width="32" height="32" viewBox="0 0 32 32"><defs><path id="c4dta" d="M552.95 1811.68l-1.11-1.12 1.11-1.12 1.12 1.12zm-17.66-.27l-1.13-1.13 1.13-1.12.56.56.55.56zm-8 8.11a.88.88 0 0 1-.63.26.88.88 0 1 1 .62-1.5c.35.33.35.9 0 1.24zm16-18.48a.88.88 0 0 1 .63-.26.88.88 0 1 1-.88.88c0-.23.09-.45.25-.62zm-6.65 26.94l-1.12 1.13-1.13-1.13 1.13-1.13zm18.94-18.43l-1.6-1.6a1.43 1.43 0 0 0-2.03 0l-.21.22a12.85 12.85 0 0 0-7.13-2.15h-.03c-1.6 0-3.14.28-4.6.83l2.8-2.8a2.63 2.63 0 0 0 3.02-.52 2.64 2.64 0 0 0-1.87-4.53 2.65 2.65 0 0 0-2.4 3.8l-5.05 5.03-.17-.17a1.43 1.43 0 0 0-2.02 0l-1.62 1.6a1.42 1.42 0 0 0 0 2.03l.17.17-5.04 5.03a2.63 2.63 0 0 0-3.02.52 2.65 2.65 0 0 0 1.88 4.54 2.65 2.65 0 0 0 2.4-3.8l2.8-2.8a12.83 12.83 0 0 0-.84 4.62c0 2.56.75 5 2.16 7.11l-.27.27a1.44 1.44 0 0 0 0 2.03l1.6 1.6a1.43 1.43 0 0 0 2.03 0l1.6-1.6c.56-.56.56-1.47 0-2.03l-1.6-1.6a1.43 1.43 0 0 0-2.03 0l-.04.05c-2.31-3.73-2.21-8.56.3-12.2a1.43 1.43 0 0 0 1.53-.32l1.61-1.6c.41-.41.52-1.02.32-1.53a11.23 11.23 0 0 1 12.22-.3l-.1.1a1.44 1.44 0 0 0 0 2.02l1.6 1.6a1.43 1.43 0 0 0 2.03 0l1.6-1.6c.56-.55.56-1.46 0-2.02z"/></defs><g><g transform="translate(-524 -1799)"><use fill="#fff" xlink:href="#c4dta"/></g></g></svg>