<svg xmlns="http://www.w3.org/2000/svg" xmlns:xlink="http://www.w3.org/1999/xlink" width="30" height="30" viewBox="0 0 30 30"><defs><path id="psfya" d="M1389.06 2129.57a3.05 3.05 0 0 1-3.08-3.03 3.05 3.05 0 0 1 3.08-3.02c1.7 0 3.09 1.35 3.09 3.02a3.05 3.05 0 0 1-3.09 3.03zm-7.54-.32a.77.77 0 0 1-1.06.1.73.73 0 0 1-.1-1.04l8.1-9.56a.77.77 0 0 1 1.06-.1c.32.26.36.73.1 1.04zm-3.68-7.8a3.05 3.05 0 0 1 3.09-3.02c1.7 0 3.08 1.35 3.08 3.02a3.05 3.05 0 0 1-3.08 3.03 3.06 3.06 0 0 1-3.1-3.03zm21.77 4.2l-.46-.61c-.5-.68-.51-1.6-.02-2.28l.45-.63c.7-.96.37-2.3-.69-2.85l-.69-.37a1.94 1.94 0 0 1-1.02-2.04l.13-.76a1.96 1.96 0 0 0-1.88-2.27l-.78-.04a2 2 0 0 1-1.84-1.4l-.22-.74a2 2 0 0 0-2.7-1.25l-.72.3c-.79.33-1.7.14-2.27-.49l-.52-.57c-.8-.87-2.2-.87-2.99.02l-.51.58c-.57.63-1.48.84-2.27.52l-.73-.3a2 2 0 0 0-2.68 1.3l-.2.74a1.97 1.97 0 0 1-1.82 1.44l-.78.04a1.96 1.96 0 0 0-1.84 2.3l.14.76c.16.82-.24 1.65-1 2.06l-.67.37a1.93 1.93 0 0 0-.64 2.86l.46.62c.5.68.51 1.6.02 2.28l-.45.63c-.7.96-.37 2.3.69 2.85l.69.37c.75.39 1.16 1.21 1.02 2.04l-.13.76a1.96 1.96 0 0 0 1.88 2.27l.78.04a2 2 0 0 1 1.84 1.4l.22.74a2 2 0 0 0 2.7 1.25l.72-.3c.79-.33 1.7-.14 2.27.49l.52.57c.8.87 2.2.87 2.99-.02l.51-.58a2.02 2.02 0 0 1 2.27-.52l.73.3a2 2 0 0 0 2.68-1.3l.2-.74c.23-.82.96-1.4 1.82-1.44l.78-.04a1.96 1.96 0 0 0 1.84-2.3l-.14-.76a1.94 1.94 0 0 1 1-2.06l.67-.37a1.93 1.93 0 0 0 .64-2.86z"/></defs><g><g transform="translate(-1370 -2109)"><use fill="#fff" xlink:href="#psfya"/></g></g></svg>