<svg xmlns="http://www.w3.org/2000/svg" xmlns:xlink="http://www.w3.org/1999/xlink" width="30" height="32" viewBox="0 0 30 32"><defs><path id="wbnfa" d="M550.6 2133.97a.9.9 0 0 1 0 1.26.86.86 0 0 1-1.22 0l-2.16-2.21a.9.9 0 0 1 0-1.26.85.85 0 0 1 1.23 0zm-21.21-19.22a.9.9 0 0 1 0-1.26.86.86 0 0 1 1.23 0l2.16 2.2a.9.9 0 0 1 0 1.26.86.86 0 0 1-1.23 0zm17.83 2.21a.9.9 0 0 1 0-1.26l2.16-2.2a.85.85 0 0 1 1.23 0 .9.9 0 0 1 0 1.25l-2.16 2.21a.86.86 0 0 1-1.23 0zm-14.45 14.8a.9.9 0 0 1 0 1.26l-2.15 2.2a.86.86 0 0 1-1.23 0 .9.9 0 0 1 0-1.25l2.16-2.21a.84.84 0 0 1 1.22 0zm22.23-7.41c0 .5-.4.88-.87.88h-3.04a.88.88 0 0 1-.87-.88c0-.5.4-.88.87-.88h3.04c.48 0 .87.4.87.88zm-26.09.88h-3.04a.88.88 0 0 1-.87-.88c0-.5.4-.88.87-.88h3.04c.48 0 .87.4.87.88 0 .5-.39.88-.87.88zm10.22-12.23v-3.11c0-.5.39-.89.87-.89s.87.4.87.89v3.11c0 .5-.4.9-.87.9a.88.88 0 0 1-.87-.9zm1.74 6.59a.88.88 0 0 0-.87-.9 5.63 5.63 0 0 0-5.56 5.7c0 .48.39.89.87.89s.87-.4.87-.9a3.87 3.87 0 0 1 3.82-3.9c.48 0 .87-.4.87-.9zm6.83 4.77c0 2.13-.82 4.06-2.16 5.47a7.3 7.3 0 0 0-1.9 3.93c-.09.63-.62 1.1-1.25 1.1h-4.78c-.63 0-1.17-.46-1.26-1.1a7.38 7.38 0 0 0-1.9-3.93 7.95 7.95 0 0 1-2.15-5.38 7.77 7.77 0 0 1 7.65-7.97 7.79 7.79 0 0 1 7.75 7.88zm-4.14 12.6v.94c0 .74-.53 1.36-1.23 1.47l-.22.85c-.12.46-.53.78-1 .78h-2.23c-.47 0-.87-.32-1-.78l-.21-.85a1.48 1.48 0 0 1-1.24-1.48v-.93c0-.5.4-.9.88-.9h5.37c.5 0 .88.4.88.9z"/></defs><g><g transform="translate(-525 -2109)"><use fill="#fff" xlink:href="#wbnfa"/></g></g></svg>