<svg xmlns="http://www.w3.org/2000/svg" xmlns:xlink="http://www.w3.org/1999/xlink" width="35" height="28" viewBox="0 0 35 28"><defs><path id="ogp2a" d="M1503 72V50h29v22z"/><path id="ogp2b" d="M1503 51a1 1 0 0 1 1-1h27a1 1 0 0 1 1 1v20a1 1 0 0 1-1 1h-27a1 1 0 0 1-1-1z"/><path id="ogp2d" d="M1503 62.83V50h12.69v12.83z"/><path id="ogp2e" d="M1504.81 53.67v-1.84h1.82v1.84z"/><path id="ogp2f" d="M1508.44 53.67v-1.84h1.81v1.84z"/><path id="ogp2g" d="M1512.06 53.67v-1.84h1.82v1.84z"/><path id="ogp2h" d="M1512.06 57.33V55.5h1.82v1.83z"/><path id="ogp2i" d="M1508.44 57.33V55.5h1.81v1.83z"/><path id="ogp2j" d="M1504.81 57.33V55.5h1.82v1.83z"/><path id="ogp2k" d="M1512.06 61v-1.83h1.82V61z"/><path id="ogp2l" d="M1508.44 61v-1.83h1.81V61z"/><path id="ogp2m" d="M1504.81 61v-1.83h1.82V61z"/><path id="ogp2n" d="M1515.69 53.67v-1.84H1532v1.84z"/><path id="ogp2o" d="M1515.69 57.33V55.5H1532v1.83z"/><path id="ogp2p" d="M1515.69 61v-1.83H1532V61z"/><path id="ogp2q" d="M1497.56 64.67v-1.84H1532v1.84z"/><path id="ogp2r" d="M1497.56 72v-1.83H1532V72z"/><path id="ogp2s" d="M1497.56 68.33V66.5H1532v1.83z"/><clipPath id="ogp2t"><use fill="#fff" xlink:href="#ogp2a"/></clipPath><clipPath id="ogp2c"><use xlink:href="#ogp2b"/></clipPath></defs><g><g transform="translate(-1500 -49)"><g><g><use fill="#fff" xlink:href="#ogp2b"/></g><g clip-path="url(#ogp2c)"><use fill="#b22234" xlink:href="#ogp2a"/></g><g clip-path="url(#ogp2c)"><g><use fill="#3c3b6e" xlink:href="#ogp2d"/></g><g><use fill="#fff" xlink:href="#ogp2e"/></g><g><use fill="#fff" xlink:href="#ogp2f"/></g><g><use fill="#fff" xlink:href="#ogp2g"/></g><g><use fill="#fff" xlink:href="#ogp2h"/></g><g><use fill="#fff" xlink:href="#ogp2i"/></g><g><use fill="#fff" xlink:href="#ogp2j"/></g><g><use fill="#fff" xlink:href="#ogp2k"/></g><g><use fill="#fff" xlink:href="#ogp2l"/></g><g><use fill="#fff" xlink:href="#ogp2m"/></g></g><g clip-path="url(#ogp2c)"><g><use fill="#fff" xlink:href="#ogp2n"/></g><g><use fill="#fff" xlink:href="#ogp2o"/></g><g><use fill="#fff" xlink:href="#ogp2p"/></g><g><use fill="#fff" xlink:href="#ogp2q"/></g><g><use fill="#fff" xlink:href="#ogp2r"/></g><g><use fill="#fff" xlink:href="#ogp2s"/></g></g><g clip-path="url(#ogp2c)"><g><g><use fill="#fff" fill-opacity="0" stroke="#000" stroke-miterlimit="50" stroke-opacity=".1" stroke-width="2" clip-path="url(&quot;#ogp2t&quot;)" xlink:href="#ogp2a"/></g></g></g></g></g></g></svg>